<?xml version="1.0" encoding="UTF-8" standalone="no"?>
<svg width="123px" height="22px" viewBox="0 0 123 22" version="1.1" xmlns="http://www.w3.org/2000/svg" xmlns:xlink="http://www.w3.org/1999/xlink" xmlns:sketch="http://www.bohemiancoding.com/sketch/ns">
    <!-- Generator: Sketch 3.0.4 (8053) - http://www.bohemiancoding.com/sketch -->
    <title>company-theguardian</title>
    <desc>Created with Sketch.</desc>
    <defs></defs>
    <g id="Homepage" stroke="none" stroke-width="1" fill="none" fill-rule="evenodd" sketch:type="MSPage">
        <g sketch:type="MSArtboardGroup" transform="translate(-566.000000, -394.000000)" id="django-companies" fill="#93D7B7">
            <g sketch:type="MSLayerGroup" transform="translate(249.000000, 386.000000)">
                <path d="M420.309088,21.69025 L420.309088,18.62775 L419.45675,18.71 C418.607971,18.7905 417.910441,19.3435 417.910441,20.383 C417.910441,21.58 418.581279,22.105 419.285926,22.105 C419.693412,22.105 420.108015,21.90725 420.309088,21.69025 M417.723603,14.118 L416.947779,16.3335 L415.049147,16.3335 L415.049147,13.48625 C416.077647,13.173 417.529647,12.662 419.467426,12.662 C422.408794,12.662 423.972897,13.80125 423.972897,16.2355 L423.972897,22.13475 L425.273647,22.66675 L425.273647,23.617 C424.915985,23.80425 423.835882,24.0475 422.949735,24.0475 C421.800235,24.0475 420.903412,23.687 420.732588,22.518 L420.632941,22.518 C420.143603,23.48925 418.839294,24.0685 417.469147,24.0685 C415.511794,24.0685 414.282221,22.833 414.282221,21.02525 C414.282221,18.80625 415.773368,18.318 418.195147,17.8245 L420.309088,17.471 L420.309088,16.16025 C420.309088,14.7655 419.882029,14.0725 418.472735,14.0725 C418.291235,14.0725 417.946029,14.097 417.723603,14.118 M380.560588,21.69025 L380.560588,18.62775 L379.70825,18.71 C378.859471,18.7905 378.163721,19.3435 378.163721,20.383 C378.163721,21.58 378.834559,22.105 379.539206,22.105 C379.944912,22.105 380.359515,21.90725 380.560588,21.69025 M377.975103,14.118 L377.1975,16.3335 L375.300647,16.3335 L375.300647,13.48625 C376.329147,13.173 377.781147,12.662 379.717147,12.662 C382.658515,12.662 384.224397,13.80125 384.224397,16.2355 L384.224397,22.13475 L385.525147,22.66675 L385.525147,23.617 C385.165706,23.80425 384.087382,24.0475 383.201235,24.0475 C382.051735,24.0475 381.154912,23.687 380.985868,22.518 L380.884441,22.518 C380.395103,23.48925 379.090794,24.0685 377.720647,24.0685 C375.763294,24.0685 374.533721,22.833 374.533721,21.02525 C374.533721,18.80625 376.024868,18.318 378.446647,17.8245 L380.560588,17.471 L380.560588,16.16025 C380.560588,14.7655 380.133529,14.0725 378.726015,14.0725 C378.542735,14.0725 378.197529,14.097 377.975103,14.118 Z M318.78475,20.76975 L318.78475,14.762 L317.094309,14.762 L317.094309,13.1205 L318.78475,12.89825 L318.78475,10.84725 L322.434324,10.345 L322.434324,12.89825 L324.856103,12.89825 L324.856103,14.762 L322.434324,14.762 L322.434324,20.45475 C322.434324,21.517 322.738603,22.06475 323.80625,22.06475 C324.190603,22.06475 324.710191,22.02275 324.973544,21.97725 L324.973544,23.3825 C324.377441,23.72025 323.133632,24.009 321.984132,24.009 C319.806132,24.009 318.78475,23.06575 318.78475,20.76975 Z M344.006132,13.97975 C344.922529,13.97975 345.417206,14.3665 345.417206,17.198 L342.356618,17.373 C342.356618,14.81975 342.842397,13.97975 344.006132,13.97975 Z M342.388647,18.668 L348.965353,18.668 C348.965353,14.111 347.372779,12.662 344.066632,12.662 C340.780059,12.662 338.623412,14.74275 338.623412,18.31625 C338.623412,22.007 340.578985,24.0475 344.367353,24.0475 C346.406559,24.0475 348.052515,23.16375 348.561426,22.476 L348.561426,21.41725 C347.796279,21.6535 347.009779,21.79175 345.596926,21.79175 C343.607544,21.79175 342.582603,20.78025 342.388647,18.668 M354.938838,27.334 C352.935221,27.334 352.066868,26.83875 352.066868,26.0845 C352.066868,25.55425 352.227015,25.07475 352.581118,24.765 L356.901529,24.765 C357.809029,24.765 358.513676,24.891 358.513676,25.696 C358.513676,26.816 357.442471,27.334 354.938838,27.334 M355.036706,13.9815 C355.833882,13.9815 356.351691,14.559 356.351691,16.37375 C356.351691,18.185 355.826765,18.64875 355.036706,18.64875 C354.248426,18.64875 353.735956,18.185 353.735956,16.37375 C353.735956,14.559 354.239529,13.9815 355.036706,13.9815 M357.255632,21.4715 L353.582926,21.4715 C353.02775,21.4715 352.670088,21.1145 352.670088,20.74175 C352.670088,20.4495 352.751941,20.01025 353.017074,19.7985 C353.618515,19.977 354.296471,20.06625 355.036706,20.06625 C357.880206,20.06625 359.825103,18.8395 359.825103,16.484 C359.825103,15.41825 359.446088,14.81975 358.739662,14.202 L358.777029,14.111 L360.688118,14.6885 L360.688118,12.6515 L360.474588,12.6515 L357.732515,13.13275 L357.575926,13.13275 C356.890853,12.88425 355.922853,12.68125 355.036706,12.68125 C352.194985,12.68125 350.225176,14.0165 350.225176,16.37375 C350.225176,17.80875 350.824838,18.86575 352.038397,19.473 L352.038397,19.585 C351.029471,20.32175 350.205603,21.31575 350.205603,22.1995 C350.205603,23.043 350.810603,24.0195 351.981456,24.29425 L351.981456,24.40975 C350.977868,24.7545 349.541882,25.12375 349.541882,26.3015 C349.541882,27.754 351.380015,28.755 354.849868,28.755 C359.159603,28.755 361.092044,27.033 361.092044,24.45 C361.092044,22.3325 359.689868,21.4715 357.255632,21.4715 Z M407.602309,13.369 L407.602309,14.4855 L408.961779,15.04375 L408.961779,22.13475 L407.65925,22.66675 L407.65925,23.79375 L413.937015,23.79375 L413.937015,22.66675 L412.630926,22.13475 L412.630926,12.64975 L412.323088,12.64975 L407.602309,13.369 Z M386.009147,13.369 L386.009147,14.4855 L387.370397,15.04375 L387.370397,22.13475 L386.066088,22.66675 L386.066088,23.79375 L392.808279,23.79375 L392.808279,22.66675 L391.039544,22.13475 L391.035985,16.2355 C391.664118,15.93975 392.489765,15.84175 393.477338,15.84175 C393.801191,15.84175 394.181985,15.882 394.406191,15.93975 L394.406191,12.77925 C394.285191,12.739 394.041412,12.7215 393.859912,12.7215 C392.649912,12.7215 391.664118,13.48625 391.016412,14.93875 L390.895412,14.93875 L390.895412,12.64975 L390.587574,12.64975 L386.009147,13.369 Z M410.785676,8.1855 C411.862221,8.1855 412.732353,9.0395 412.732353,10.0965 C412.732353,11.15525 411.862221,12.01275 410.785676,12.01275 C409.710912,12.01275 408.839,11.15525 408.839,10.0965 C408.839,9.0395 409.710912,8.1855 410.785676,8.1855 Z M402.055882,10.59 L400.566515,10.03175 L400.566515,8.917 L405.418971,8.196 L405.726809,8.196 L405.726809,21.8005 L407.024,22.42875 L407.024,23.498 L402.530985,23.9845 L402.219588,23.98275 L402.219588,22.85225 L402.096809,22.85225 C401.637721,23.428 400.691074,24.03 399.322706,24.03 C397.304853,24.03 394.906206,22.77175 394.906206,18.6085 C394.906206,14.23175 397.360015,12.66025 400.281809,12.66025 C400.885029,12.66025 401.612809,12.7985 402.055882,13.11175 L402.055882,10.59 Z M402.054103,21.87575 L402.054103,14.54325 C401.772956,14.328 401.472235,14.153 400.806735,14.153 C399.655456,14.153 398.776426,15.175 398.776426,18.23925 C398.776426,20.922 399.475735,22.0875 400.925956,22.0875 C401.48825,22.0875 401.806765,21.9755 402.054103,21.87575 M362.581412,15.04375 L361.216603,14.4855 L361.216603,13.369 L365.937382,12.64975 L366.247,12.64975 L366.247,20.299 C366.247,21.53625 366.862676,21.75325 367.78975,21.75325 C368.474824,21.75325 368.745294,21.63775 369.108294,21.4995 L369.108294,15.04375 L367.745265,14.4855 L367.745265,13.369 L372.469603,12.64975 L372.777441,12.64975 L372.777441,21.93 L374.133353,22.55825 L374.133353,23.498 L369.54425,23.9845 L369.232853,23.98275 L369.229294,22.539 L369.108294,22.539 C368.401868,23.40175 367.239912,24.03 365.748765,24.03 C363.529838,24.03 362.581412,22.476 362.581412,20.59125 L362.581412,15.04375 M325.656838,22.665 L326.959368,22.13475 L326.959368,10.583 L325.598118,10.023 L325.598118,8.90825 L330.27975,8.18725 L330.587588,8.18725 L330.587588,14.0935 L330.710368,14.0935 C331.696162,13.2115 333.027162,12.662 334.518309,12.662 C336.374235,12.662 337.301309,13.57375 337.301309,15.5635 L337.301309,22.13475 L338.607397,22.665 L338.607397,23.79375 L332.455971,23.79375 L332.455971,22.665 L333.630382,22.13475 L333.630382,16.49975 C333.630382,15.40075 333.135706,14.98775 332.141015,14.98775 C331.596515,14.98775 331.073368,15.08575 330.628515,15.2625 L330.628515,22.13475 L331.802926,22.665 L331.802926,23.79375 L325.656838,23.79375 L325.656838,22.665 M425.933809,22.665 L427.232779,22.13475 L427.232779,15.04375 L425.871529,14.4855 L425.871529,13.369 L430.554941,12.64975 L430.864559,12.64975 L430.864559,14.0935 L430.983779,14.0935 C431.971353,13.2115 433.300574,12.662 434.7935,12.662 C436.647647,12.662 437.572941,13.57375 437.572941,15.5635 L437.572941,22.13475 L438.882588,22.665 L438.882588,23.79375 L432.729382,23.79375 L432.729382,22.665 L433.905574,22.13475 L433.905574,16.49975 C433.905574,15.40075 433.410897,14.98775 432.416206,14.98775 C431.869926,14.98775 431.348559,15.08575 430.903706,15.2625 L430.903706,22.13475 L432.078118,22.665 L432.078118,23.79375 L425.933809,23.79375 L425.933809,22.665" id="company-theguardian" sketch:type="MSShapeGroup"></path>
            </g>
        </g>
    </g>
</svg>