<?xml version="1.0" encoding="UTF-8" standalone="no"?>
<svg width="94px" height="20px" viewBox="0 0 94 20" version="1.1" xmlns="http://www.w3.org/2000/svg" xmlns:xlink="http://www.w3.org/1999/xlink" xmlns:sketch="http://www.bohemiancoding.com/sketch/ns">
    <!-- Generator: Sketch 3.0.4 (8053) - http://www.bohemiancoding.com/sketch -->
    <title>logo-rackspace</title>
    <desc>Created with Sketch.</desc>
    <defs></defs>
    <g id="Homepage" stroke="none" stroke-width="1" fill="none" fill-rule="evenodd" sketch:type="MSPage">
        <g sketch:type="MSArtboardGroup" transform="translate(-230.000000, -2991.000000)" id="logo-rackspace" fill="#F1FFF7" opacity="0.41">
            <path d="M275.072343,2994.88946 C276.433391,2994.88946 277.438283,2995.18633 277.923948,2995.46144 C277.929871,2995.4646 277.93303,2995.47173 277.931451,2995.47846 L277.461974,2997.94925 C277.461185,2997.954 277.457236,2997.95835 277.452498,2997.96073 C277.448155,2997.9631 277.442627,2997.9631 277.437888,2997.96033 C276.887468,2997.6595 275.93588,2997.33927 274.914009,2997.33927 C274.056,2997.33927 273.497288,2997.69908 273.497288,2998.30233 C273.497288,2998.73498 273.92491,2999.1225 274.829906,2999.56504 C276.008927,3000.15523 277.340755,3001.03002 277.340755,3002.61138 C277.340755,3003.64331 276.997236,3004.50663 276.320858,3005.17915 C275.421391,3006.07413 273.962026,3006.56258 272.206918,3006.54913 C270.856927,3006.52696 269.491931,3006.17585 268.808841,3005.67988 C268.803313,3005.67631 268.800944,3005.66998 268.802129,3005.66325 L269.273185,3003.17781 C269.274369,3003.17267 269.277528,3003.16792 269.283056,3003.16554 C269.288189,3003.16356 269.293322,3003.16435 269.29806,3003.16713 C270.029322,3003.62669 271.468549,3004.12227 272.525562,3004.12227 C273.344481,3004.12227 273.896481,3003.74306 273.896481,3003.13546 C273.896481,3002.58525 273.508343,3002.2001 272.517665,3001.71402 C270.950901,3000.92869 270.16673,2999.93277 270.16673,2998.75913 C270.16673,2996.45023 272.128738,2994.88946 275.072343,2994.88946 Z M238.967279,2994.8669 C239.163124,2994.8669 239.403588,2994.88748 239.580086,2994.91954 C239.584034,2994.92033 239.587588,2994.92271 239.590352,2994.92667 C239.592721,2994.93102 239.593906,2994.93458 239.592721,2994.93894 L238.955828,2998.1535 C238.955433,2998.15785 238.953064,2998.16181 238.949116,2998.16419 C238.945562,2998.16656 238.940824,2998.16696 238.936876,2998.16656 C238.821185,2998.14242 238.637185,2998.11431 238.421202,2998.11431 C236.174901,2998.11431 235.298335,3000.31554 234.957579,3002.13598 L234.159983,3006.41612 C234.158009,3006.42404 234.151691,3006.42919 234.143794,3006.42919 L230.868515,3006.42919 C230.863382,3006.42919 230.859039,3006.42721 230.856275,3006.42365 C230.853116,3006.41969 230.851536,3006.41454 230.852326,3006.40979 L232.992017,2995.13131 C232.993597,2995.12379 233.000309,2995.11785 233.008206,2995.11785 L235.888635,2995.11746 C235.894163,2995.11746 235.898506,2995.11944 235.901665,2995.12379 C235.904034,2995.12656 235.905614,2995.13052 235.905614,2995.13369 L235.538009,2997.07248 C235.535245,2997.08554 235.538009,2997.10256 235.554592,2997.11087 C235.571571,2997.11958 235.589734,2997.11404 235.601185,2997.09623 C236.461562,2995.6645 237.651245,2994.8669 238.967279,2994.8669 Z M243.31497,2998.07354 C242.425768,2998.96496 241.758867,3000.63933 241.759657,3001.97171 C241.760052,3003.14179 242.192807,3003.87052 242.944996,3003.87052 C244.149288,3003.87052 245.186163,3002.60821 245.542712,3000.76006 C245.622867,3000.34721 245.703811,2999.92723 245.762249,2999.55356 C245.820687,2999.18029 245.857013,2998.85096 245.846352,2998.62098 C245.808052,2997.83169 245.398197,2997.40617 244.663382,2997.40617 C244.213648,2997.40617 243.74733,2997.63892 243.31497,2998.07354 Z M244.542558,3006.31519 C244.539004,3006.31123 244.538215,3006.30648 244.539004,3006.30173 L244.814215,3004.90404 C244.818163,3004.88188 244.806712,3004.86525 244.787365,3004.86169 C244.771966,3004.85892 244.758146,3004.86723 244.751039,3004.8795 C244.142575,3005.91342 242.951708,3006.57248 241.611588,3006.57248 C239.413064,3006.57248 238.419227,3004.61548 238.418043,3002.65729 C238.416464,3000.43271 239.288292,2998.2299 240.748841,2996.76452 C241.971691,2995.53783 243.5503,2994.88946 245.315279,2994.88946 C246.657768,2994.895 247.650815,2995.2845 248.273099,2996.04054 C249.194678,2997.15996 249.119262,2998.83988 248.889459,3000.06142 L247.698592,3006.30806 C247.697013,3006.31558 247.69109,3006.32152 247.682403,3006.32152 L244.555193,3006.32152 C244.55006,3006.32152 244.545717,3006.31915 244.542558,3006.31519 L244.542558,3006.31519 Z M282.811004,3004.05419 C284.548738,3004.05419 285.825288,3001.58102 285.825288,2999.398 C285.825288,2998.87075 285.70091,2997.58983 284.489116,2997.58983 C283.25679,2997.58983 282.216361,2998.99781 281.813219,3001.13294 C281.675021,3001.86246 281.288464,3004.05419 282.811004,3004.05419 L282.811004,3004.05419 Z M285.656687,2994.88946 C287.846524,2994.88946 289.266009,2996.55315 289.266009,2999.14665 C289.266009,3001.86642 287.963794,3004.65506 285.615622,3005.90985 C283.476721,3007.05302 281.566043,3006.5515 280.965476,3005.65613 C280.964687,3005.65454 280.961923,3005.65454 280.961923,3005.65652 L280.162747,3009.89233 C280.161562,3009.89985 280.154455,3009.90619 280.146558,3009.90619 L276.870489,3009.90619 C276.865751,3009.90619 276.861013,3009.90381 276.858249,3009.89985 C276.85509,3009.8959 276.853906,3009.89115 276.85509,3009.8864 L279.666815,2995.06085 C279.668395,2995.05294 279.675107,2995.0474 279.683004,2995.0474 L282.563828,2995.04898 C282.568567,2995.04898 282.57291,2995.05135 282.576464,2995.05492 C282.579622,2995.05927 282.580412,2995.06442 282.579622,2995.06838 L282.293356,2996.57808 C282.290197,2996.59471 282.291777,2996.6149 282.308361,2996.62163 C282.324155,2996.62796 282.341528,2996.62242 282.354558,2996.60579 L282.368378,2996.58758 C283.211382,2995.50221 284.403433,2994.88946 285.656687,2994.88946 L285.656687,2994.88946 Z M261.109665,2991.19475 L264.362438,2991.19475 C264.367176,2991.19475 264.371914,2991.19713 264.374678,2991.20069 C264.378232,2991.20544 264.379021,2991.20979 264.378232,2991.21454 L262.681167,3000.16235 C262.680378,3000.16829 262.681562,3000.17383 262.687485,3000.17621 C262.692618,3000.17858 262.698541,3000.1774 262.702094,3000.17304 L267.069528,2995.12379 C267.072292,2995.11983 267.07703,2995.11785 267.081768,2995.11785 L270.649236,2995.11785 C270.655948,2995.11785 270.661871,2995.12181 270.664635,2995.12815 C270.665425,2995.13052 270.666215,2995.1325 270.666215,2995.13488 C270.666215,2995.13844 270.664635,2995.14279 270.661871,2995.14556 L266.130575,3000.2629 L268.894918,3006.2764 C268.896103,3006.27877 268.896103,3006.28035 268.896103,3006.28273 C268.896103,3006.28629 268.895313,3006.28946 268.894129,3006.29183 C268.890575,3006.29658 268.885442,3006.29935 268.880309,3006.29935 L265.358249,3006.29935 C265.351931,3006.29935 265.345614,3006.29619 265.34285,3006.28985 L262.668927,3000.34523 C262.666953,3000.34048 262.662609,3000.33771 262.657082,3000.3381 C262.651159,3000.3385 262.647605,3000.34246 262.646421,3000.3476 L261.520309,3006.28629 C261.51873,3006.29421 261.512017,3006.29935 261.50412,3006.29935 L258.251348,3006.29935 C258.246215,3006.29935 258.241476,3006.29698 258.238318,3006.29381 C258.235159,3006.28946 258.234369,3006.28431 258.235159,3006.27996 L261.093476,2991.20821 C261.094661,2991.20029 261.101373,2991.19475 261.109665,2991.19475 M316.726232,2998.2576 C316.726232,2997.68048 316.249253,2997.31631 315.537339,2997.31631 C314.124567,2997.31631 313.218386,2998.46225 312.954232,2999.54327 L312.944755,2999.58285 C312.943966,2999.58365 312.943966,2999.58404 312.944755,2999.58483 C312.945545,2999.58563 312.94594,2999.58602 312.947124,2999.58602 L312.987399,2999.58602 C314.902026,2999.59869 315.98194,2999.40156 316.45497,2998.93171 C316.637785,2998.74962 316.726232,2998.52875 316.726232,2998.2576 L316.726232,2998.2576 Z M315.946798,2994.88985 C318.275622,2994.88985 319.829356,2996.24638 319.829356,2998.2576 C319.829356,2999.18781 319.527296,2999.95256 318.932652,3000.53365 C317.841682,3001.59923 315.793597,3002.08729 312.659279,3002.01327 L312.624532,3002.01287 C312.624137,3002.01248 312.623742,3002.01287 312.623742,3002.01287 C312.623348,3002.01327 312.623348,3002.01327 312.623348,3002.01406 L312.624532,3002.04929 C312.635193,3002.37269 312.746541,3002.82948 312.956996,3003.12517 C313.385408,3003.66785 314.143124,3003.96315 315.082472,3003.96315 C316.455365,3003.96315 317.645047,3003.62906 318.938575,3002.88173 C318.944103,3002.87817 318.95121,3002.87856 318.956343,3002.88252 C318.961476,3002.88608 318.963845,3002.89242 318.963056,3002.89875 L318.441459,3005.64702 C318.44067,3005.65217 318.437511,3005.65612 318.433562,3005.6585 C316.857717,3006.46283 315.009425,3006.54952 314.28685,3006.54952 C311.208206,3006.54952 309.448361,3004.83358 309.448361,3001.83673 C309.448361,3000.10931 310.081305,2998.37794 311.18412,2997.08673 C312.394335,2995.66965 314.085871,2994.88985 315.946798,2994.88985 L315.946798,2994.88985 Z M319.843571,3005.155 C319.782369,3005.8386 320.279485,3006.38525 320.960206,3006.38525 C321.654352,3006.38525 322.273871,3005.81644 322.335863,3005.11977 C322.397459,3004.43458 321.899554,3003.88833 321.219227,3003.88833 C320.525476,3003.88833 319.906747,3004.45675 319.843571,3005.155 L319.843571,3005.155 Z M319.64812,3005.13719 C319.719983,3004.3384 320.42321,3003.69081 321.219227,3003.69081 C322.015639,3003.69081 322.603176,3004.3384 322.532103,3005.13719 C322.459845,3005.93479 321.756618,3006.58198 320.960206,3006.58198 C320.163794,3006.58198 319.576258,3005.93479 319.64812,3005.13719 L319.64812,3005.13719 Z M320.774232,3004.28417 C320.775021,3004.281 320.777785,3004.27823 320.781339,3004.27823 L321.142627,3004.27823 L321.146575,3004.27862 C321.23897,3004.28021 321.299777,3004.2806 321.347159,3004.28417 C321.410335,3004.28852 321.457717,3004.29881 321.506678,3004.31583 C321.690283,3004.37679 321.794524,3004.52246 321.794524,3004.7081 C321.794524,3004.74017 321.791365,3004.77342 321.784258,3004.80746 C321.742403,3005.03546 321.598678,3005.2211 321.334129,3005.29394 L321.565906,3005.97952 C321.565906,3005.98031 321.5663,3005.98071 321.5663,3005.9819 C321.5663,3005.98308 321.565906,3005.98387 321.565116,3005.98506 C321.563536,3005.98744 321.561562,3005.98823 321.559588,3005.98823 L321.324652,3005.98823 C321.321494,3005.98823 321.31873,3005.98625 321.31794,3005.98348 L321.096824,3005.33115 L320.952309,3005.33471 L320.787262,3005.33471 L320.665648,3005.98308 C320.665253,3005.98585 320.6617,3005.98823 320.658541,3005.98823 L320.46388,3005.98823 C320.461906,3005.98823 320.459536,3005.98744 320.458352,3005.98546 C320.457167,3005.98387 320.456378,3005.98269 320.456378,3005.98031 L320.579571,3005.326 L320.580755,3005.31769 L320.677494,3004.80469 L320.774232,3004.28417 L320.774232,3004.28417 Z M321.103931,3004.48763 L320.945597,3004.48763 L320.886369,3004.80746 L320.826352,3005.12492 L321.000086,3005.12492 C321.08024,3005.12333 321.13315,3005.12254 321.175399,3005.11977 C321.221991,3005.11621 321.256738,3005.10948 321.295039,3005.098 C321.445082,3005.05485 321.550112,3004.94481 321.576172,3004.80508 C321.602627,3004.66615 321.539056,3004.55729 321.405991,3004.51494 C321.372034,3004.50188 321.341631,3004.49673 321.295433,3004.49277 C321.253579,3004.49 321.201064,3004.4896 321.1217,3004.48763 L321.103931,3004.48763 L321.103931,3004.48763 Z M294.383657,2998.07354 C293.49485,2998.96496 292.827948,3000.63933 292.828738,3001.97171 C292.829133,3003.14179 293.261888,3003.87052 294.014472,3003.87052 C295.218369,3003.87052 296.255245,3002.60821 296.611794,3000.76006 C296.691948,3000.34721 296.772893,2999.92723 296.83133,2999.55356 C296.890163,2999.18029 296.926094,2998.85096 296.915828,2998.62098 C296.877133,2997.83169 296.467279,2997.40617 295.732069,2997.40617 C295.28273,2997.40617 294.816412,2997.63892 294.383657,2998.07354 L294.383657,2998.07354 Z M295.611639,3006.31519 C295.608481,3006.31123 295.607296,3006.30648 295.608481,3006.30173 L295.883691,3004.90404 C295.887245,3004.88188 295.875794,3004.86525 295.856446,3004.86169 C295.841047,3004.85892 295.827227,3004.86723 295.82012,3004.8795 C295.211657,3005.91342 294.020395,3006.57248 292.68067,3006.57248 C290.482146,3006.57248 289.488309,3004.61548 289.487124,3002.65729 C289.485545,3000.43271 290.357373,2998.2299 291.817528,2996.76452 C293.040773,2995.53783 294.619382,2994.88946 296.384361,2994.88946 C297.72685,2994.895 298.720292,2995.2845 299.342575,2996.04054 C300.26376,2997.15996 300.188343,2998.83988 299.958541,3000.06142 L298.767674,3006.30806 C298.766489,3006.31558 298.759777,3006.32152 298.751485,3006.32152 L295.62467,3006.32152 C295.619142,3006.32152 295.614798,3006.31915 295.611639,3006.31519 L295.611639,3006.31519 Z M307.774197,2994.91281 C308.6097,2994.91281 309.46218,2995.05848 310.054455,2995.30113 C310.061562,2995.30429 310.065906,2995.31221 310.064326,2995.31973 L309.558524,2997.98092 C309.557339,2997.98567 309.55418,2997.99042 309.549837,2997.9924 C309.544309,2997.99438 309.538781,2997.99477 309.534438,2997.9916 C309.023502,2997.70542 308.432412,2997.56727 307.728,2997.56727 C305.372721,2997.56727 303.96982,2999.6256 303.96982,3001.60913 C303.96982,3003.29221 305.091193,3003.89506 306.136361,3003.89506 C307.07097,3003.89506 307.865408,3003.69042 308.874644,3003.19246 C308.880172,3003.18929 308.886884,3003.19008 308.892017,3003.19365 C308.89715,3003.19721 308.899124,3003.20394 308.89794,3003.20988 L308.381871,3005.9435 C308.380687,3005.94825 308.377133,3005.9526 308.372395,3005.95498 C307.607176,3006.32627 306.422627,3006.54913 305.20412,3006.54913 C302.345408,3006.54913 300.502644,3004.75402 300.502644,3001.97369 C300.502644,2997.94846 303.62709,2994.91281 307.774197,2994.91281 M256.705116,2994.91281 C257.540618,2994.91281 258.393099,2995.05848 258.985373,2995.30113 C258.992876,2995.30429 258.996824,2995.31221 258.995245,2995.31973 L258.489442,2997.98092 C258.488258,2997.98567 258.485099,2997.99042 258.480361,2997.9924 C258.475227,2997.99438 258.4697,2997.99477 258.465356,2997.9916 C257.954815,2997.70542 257.363725,2997.56727 256.658918,2997.56727 C254.304034,2997.56727 252.900343,2999.6256 252.900343,3001.60913 C252.900343,3003.29221 254.022112,3003.89506 255.067279,3003.89506 C256.001888,3003.89506 256.795931,3003.69042 257.805562,3003.19246 C257.81109,3003.18929 257.817803,3003.19008 257.822936,3003.19365 C257.827674,3003.19721 257.830043,3003.20394 257.828858,3003.20988 L257.31279,3005.9435 C257.311605,3005.94825 257.308052,3005.9526 257.303313,3005.95498 C256.538094,3006.32627 255.353545,3006.54913 254.135039,3006.54913 C251.276326,3006.54913 249.433957,3004.75402 249.433957,3001.97369 C249.433957,2997.94846 252.558403,2994.91281 256.705116,2994.91281" sketch:type="MSShapeGroup"></path>
        </g>
    </g>
</svg>