<?xml version="1.0" encoding="UTF-8" standalone="no"?>
<!DOCTYPE svg PUBLIC "-//W3C//DTD SVG 1.1//EN" "http://www.w3.org/Graphics/SVG/1.1/DTD/svg11.dtd">
<svg width="100%" height="100%" viewBox="0 0 1920 1080" version="1.1" xmlns="http://www.w3.org/2000/svg" xmlns:xlink="http://www.w3.org/1999/xlink" xml:space="preserve" xmlns:serif="http://www.serif.com/" style="fill-rule:evenodd;clip-rule:evenodd;stroke-linejoin:round;stroke-miterlimit:2;">
    <g id="Background">
        <rect id="Dark" x="0" y="0" width="1920" height="1080" style="fill:rgb(33,73,53);"/>
    </g>
    <g transform="matrix(1,0,0,1,-0.384,-32.884)">
        <g id="Django" transform="matrix(1.28417,0,0,1.28417,632.89,398.518)">
            <path d="M87.937,33.922L111.808,33.922L111.808,144.418C99.563,146.744 90.571,147.673 80.806,147.673C51.664,147.673 36.473,134.499 36.473,109.23C36.473,84.894 52.594,69.082 77.551,69.082C81.426,69.082 84.371,69.393 87.937,70.322L87.937,33.922ZM87.937,89.542C85.147,88.614 82.821,88.303 79.877,88.303C67.786,88.303 60.81,95.745 60.81,108.763C60.81,121.476 67.475,128.451 79.721,128.451C82.356,128.451 84.526,128.295 87.937,127.832L87.937,89.542Z" style="fill:white;fill-rule:nonzero;"/>
            <path d="M149.785,70.787L149.785,126.127C149.785,145.193 148.39,154.337 144.205,162.245C140.329,169.84 135.213,174.644 124.673,179.915L102.506,169.373C113.047,164.414 118.163,160.077 121.417,153.408C124.828,146.588 125.914,138.681 125.914,117.91L125.914,70.787L149.785,70.787ZM125.914,34.049L149.785,34.049L149.785,58.542L125.914,58.542L125.914,34.049Z" style="fill:white;fill-rule:nonzero;"/>
            <path d="M164.204,76.212C174.746,71.251 184.821,69.082 195.827,69.082C208.073,69.082 216.133,72.337 219.699,78.694C221.713,82.258 222.334,86.908 222.334,96.831L222.334,145.347C211.637,146.899 198.151,147.983 188.231,147.983C168.235,147.983 159.244,141.006 159.244,125.507C159.244,108.763 171.179,101.014 200.478,98.533L200.478,93.262C200.478,88.923 198.307,87.374 192.262,87.374C183.427,87.374 173.506,89.854 164.204,94.66L164.204,76.212ZM201.562,114.19C185.75,115.742 180.635,118.221 180.635,124.421C180.635,129.072 183.581,131.243 190.091,131.243C193.657,131.243 196.911,130.932 201.562,130.159L201.562,114.19Z" style="fill:white;fill-rule:nonzero;"/>
            <path d="M233.96,74.508C248.064,70.787 259.69,69.082 271.471,69.082C283.717,69.082 292.553,71.871 297.825,77.298C302.785,82.412 304.334,87.992 304.334,99.93L304.334,146.744L280.462,146.744L280.462,100.86C280.462,91.715 277.363,88.303 268.837,88.303C265.582,88.303 262.637,88.614 257.831,90.009L257.831,146.744L233.96,146.744L233.96,74.508Z" style="fill:white;fill-rule:nonzero;"/>
            <path d="M313.615,159.764C321.987,164.103 330.357,166.119 339.192,166.119C354.847,166.119 361.513,159.764 361.513,144.573L361.513,144.106C356.863,146.432 352.212,147.363 346.013,147.363C325.086,147.363 311.753,133.566 311.753,111.71C311.753,84.582 331.441,69.238 366.318,69.238C376.55,69.238 386.005,70.322 397.477,72.645L389.303,89.867C382.947,88.625 388.794,89.7 383.992,89.235L383.992,91.715L384.3,101.79L384.455,114.812C384.61,118.065 384.61,121.322 384.765,124.576L384.765,131.087C384.765,151.549 383.06,161.161 377.945,169.064C370.503,180.691 357.638,186.426 339.347,186.426C330.046,186.426 321.987,185.03 313.615,181.775L313.615,159.764ZM361.048,88.458L358.568,88.458C353.918,88.303 348.494,89.542 344.772,91.868C339.038,95.124 336.091,101.014 336.091,109.385C336.091,121.322 341.983,128.141 352.523,128.141C355.778,128.141 358.414,127.521 361.513,126.591L361.513,118.376C361.513,115.586 361.359,112.485 361.359,109.23L361.205,98.224L361.048,90.319L361.048,88.458Z" style="fill:white;fill-rule:nonzero;"/>
            <path d="M434.535,68.773C458.406,68.773 472.978,83.81 472.978,108.144C472.978,133.101 457.788,148.757 433.605,148.757C409.732,148.757 395.006,133.721 395.006,109.541C395.006,84.427 410.199,68.773 434.535,68.773ZM434.068,129.537C443.215,129.537 448.641,121.941 448.641,108.763C448.641,95.745 443.371,87.992 434.226,87.992C424.769,87.992 419.342,95.589 419.342,108.763C419.342,121.941 424.769,129.537 434.068,129.537Z" style="fill:white;fill-rule:nonzero;"/>
        </g>
        <g id="Claim" transform="matrix(1,0,0,1,-104.751,13.2065)">
            <text x="507.567px" y="678.962px" style="font-family:'AvenirNext-Italic', 'Avenir Next', sans-serif;font-style:italic;font-size:48px;fill:rgb(101,180,142);">the web fr<tspan x="723.951px " y="678.962px ">a</tspan>mework for perfectionists with de<tspan x="1468.14px " y="678.962px ">a</tspan>dlines</text>
        </g>
    </g>
</svg>
