<?xml version="1.0" encoding="UTF-8" standalone="no"?>
<svg width="566px" height="489px" viewBox="0 0 566 489" version="1.1" xmlns="http://www.w3.org/2000/svg" xmlns:xlink="http://www.w3.org/1999/xlink" xmlns:sketch="http://www.bohemiancoding.com/sketch/ns">
    <title>bg-features</title>
    <description>Created with Sketch (http://www.bohemiancoding.com/sketch)</description>
    <defs></defs>
    <g id="Page-1" stroke="none" stroke-width="1" fill="none" fill-rule="evenodd" sketch:type="MSPage">
        <g id="bg-features" sketch:type="MSLayerGroup" transform="translate(-1.000000, -1.000000)">
            <path d="M216.858,85.895 C62.863,85.585 9.333,107.929 1.758,172.674 C-4.284,224.315 25.614,252.23 97.922,260.702 C108.413,261.927 118.694,262.875 129.112,263.574 C123.972,214.928 143.815,164.218 188.643,113.946 C197.886,103.579 207.303,94.232 216.858,85.895 Z M216.858,85.895" id="Shape" fill="#89E7C3" sketch:type="MSShapeGroup"></path>
            <path d="M515.249,150.597 L488.352,180.764 C506.451,180.66 525.976,179.889 548.445,178.454 L566.485,1.013 C450.739,0.6 385.12,9.727 351.527,35.237 C389.686,38.452 427.734,56.148 463.933,88.426 C485.665,107.805 500.769,125.389 515.249,150.597 C515.249,150.597 500.769,125.389 515.249,150.597 L515.249,150.597 L515.249,150.597 Z M515.249,150.597" id="Shape" fill="#89E7C3" sketch:type="MSShapeGroup"></path>
            <path d="M198.649,383.627 C190.626,376.473 183.302,369.2 176.652,361.822 C167.49,374.152 162.933,388.923 161.944,406.604 C159.028,458.749 190.703,484.917 263.716,489.009 C303.707,491.236 340.395,489.812 393.037,484.032 L403.034,304.971 C393.848,305.356 384.995,305.79 376.436,306.273 L263.336,433.109 C235.119,414.088 218.083,400.955 198.649,383.627 C198.649,383.627 218.083,400.955 198.649,383.627 L198.649,383.627 L198.649,383.627 Z M198.649,383.627" id="Shape" fill="#89E7C3" sketch:type="MSShapeGroup"></path>
            <path d="M419.737,177.541 C347.386,170.17 317.1,142.737 322.358,91.066 C324.794,67.101 333.61,48.841 351.527,35.237 C305.8,31.383 259.913,48.329 216.858,85.895 C226.656,85.915 236.848,86.024 247.473,86.222 L226.733,263.557 C188.021,265.446 158.024,265.507 129.111,263.575 C132.709,297.626 148.552,330.66 176.652,361.823 C201.666,328.167 261.09,312.75 376.438,306.275 L488.352,180.765 C464.106,180.904 442.426,179.845 419.737,177.541 C419.737,177.541 442.426,179.845 419.737,177.541 L419.737,177.541 L419.737,177.541 Z M419.737,177.541" id="Shape" fill="#3EB88A" sketch:type="MSShapeGroup"></path>
            <path d="M226.733,263.557 L247.473,86.222 C236.848,86.025 226.656,85.915 216.858,85.895 C207.303,94.232 197.886,103.579 188.643,113.946 C143.815,164.218 123.972,214.928 129.111,263.574 C158.023,265.507 188.021,265.445 226.733,263.557 C226.733,263.557 188.021,265.445 226.733,263.557 L226.733,263.557 L226.733,263.557 Z M226.733,263.557" id="Shape" fill="#B0CB2B" sketch:type="MSShapeGroup"></path>
            <path d="M247.473,86.222 C236.848,86.025 226.656,85.915 216.858,85.895 C207.303,94.232 197.886,103.579 188.643,113.946 C143.815,164.218 123.972,214.928 129.111,263.574 C158.023,265.507 188.021,265.445 226.733,263.557 L247.473,86.222 Z M247.473,86.222" id="Shape" fill="#0BAA6E" sketch:type="MSShapeGroup"></path>
            <path d="M322.358,91.065 C317.1,142.736 347.386,170.169 419.737,177.54 C442.425,179.844 464.106,180.904 488.351,180.764 L515.248,150.597 C500.768,125.389 485.664,107.805 463.933,88.426 C427.734,56.147 389.686,38.451 351.527,35.237 C333.61,48.84 324.794,67.1 322.358,91.065 C322.358,91.065 324.794,67.1 322.358,91.065 L322.358,91.065 L322.358,91.065 Z M322.358,91.065" id="Shape" fill="#B0CB2B" sketch:type="MSShapeGroup"></path>
            <path d="M322.358,91.065 C317.1,142.736 347.386,170.169 419.737,177.54 C442.425,179.844 464.106,180.904 488.351,180.764 L515.248,150.597 C500.768,125.389 485.664,107.805 463.933,88.426 C427.734,56.147 389.686,38.451 351.527,35.237 C333.61,48.84 324.794,67.1 322.358,91.065 C322.358,91.065 324.794,67.1 322.358,91.065 L322.358,91.065 L322.358,91.065 Z M322.358,91.065" id="Shape" fill="#0BAA6E" sketch:type="MSShapeGroup"></path>
            <path d="M176.652,361.822 C183.302,369.2 190.626,376.472 198.649,383.627 C218.084,400.955 235.119,414.088 263.337,433.11 L376.437,306.274 C261.09,312.749 201.666,328.166 176.652,361.822 C176.652,361.822 201.666,328.166 176.652,361.822 L176.652,361.822 L176.652,361.822 Z M176.652,361.822" id="Shape" fill="#B0CB2B" sketch:type="MSShapeGroup"></path>
            <path d="M176.652,361.822 C183.302,369.2 190.626,376.472 198.649,383.627 C218.084,400.955 235.119,414.088 263.337,433.11 L376.437,306.274 C261.09,312.749 201.666,328.166 176.652,361.822 C176.652,361.822 201.666,328.166 176.652,361.822 L176.652,361.822 L176.652,361.822 Z M176.652,361.822" id="Shape" fill="#0BAA6E" sketch:type="MSShapeGroup"></path>
        </g>
    </g>
</svg>
