<?xml version="1.0" encoding="UTF-8" standalone="no"?>
<svg width="100px" height="36px" viewBox="0 0 100 36" version="1.1" xmlns="http://www.w3.org/2000/svg" xmlns:xlink="http://www.w3.org/1999/xlink" xmlns:sketch="http://www.bohemiancoding.com/sketch/ns">
    <!-- Generator: Sketch 3.0.4 (8053) - http://www.bohemiancoding.com/sketch -->
    <title>company-instagram</title>
    <desc>Created with Sketch.</desc>
    <defs></defs>
    <g id="Homepage" stroke="none" stroke-width="1" fill="none" fill-rule="evenodd" sketch:type="MSPage">
        <g sketch:type="MSArtboardGroup" transform="translate(-738.000000, -389.000000)" id="django-companies" fill="#93D7B7">
            <g sketch:type="MSLayerGroup" transform="translate(249.000000, 386.000000)">
                <path d="M546.498627,25.8041825 C546.518015,28.0325905 546.814368,32.9335619 545.611546,34.7483349 C545.169192,35.415773 544.117514,36.0567063 543.478514,35.1310476 C541.981713,32.9612714 544.611304,26.7635746 546.498627,25.8041825 L546.498627,25.8041825 Z M544.721299,12.2345476 C545.899986,11.8253302 546.423847,12.9545937 546.5742,14.0023349 C546.772032,15.3825905 546.196735,15.9797508 546.138968,17.2684444 C545.914626,22.285073 542.955841,25.0391587 542.394787,21.0863349 C542.048184,18.6450857 542.314863,13.0702508 544.721299,12.2345476 L544.721299,12.2345476 Z M533.511706,12.4654603 C535.242346,12.0482111 535.538699,14.4268127 535.453236,15.1303937 C535.343241,16.0363746 535.084871,14.7404524 534.851429,17.3740619 C534.732729,18.7185762 534.542414,20.9538111 533.917659,22.1417063 C533.429012,23.0701762 531.713012,24.6054444 531.224365,21.3481698 C530.865101,18.9514968 531.07876,13.052581 533.511706,12.4654603 L533.511706,12.4654603 Z M525.722639,5.0184254 C525.161982,4.55941111 524.037105,4.28633175 523.129449,4.30078889 C522.839822,5.64931905 522.926473,7.21912381 522.836657,8.67809048 C522.767416,9.8033381 522.48768,9.47524127 521.388126,9.49130476 C520.658124,9.50214762 519.906756,9.47162698 519.438684,9.86397778 C519.382103,11.1807825 521.778648,11.0245651 522.648716,11.3904111 C522.715188,14.9649397 521.894578,19.1314079 523.089883,22.3975175 C523.538963,23.6251698 524.802322,25.3287032 526.593894,24.5419937 C527.973579,23.9359984 528.458665,22.126446 528.956807,21.0799095 C529.887017,24.2616857 529.892952,24.2054635 532.390391,24.7006206 C534.235774,25.0660651 535.16717,22.5959016 535.704087,21.0795079 C535.975514,21.7477492 535.89915,22.0513492 536.347043,22.6894714 C536.617679,23.0757984 537.022048,23.5243714 537.668566,23.6862111 C539.177633,24.0641048 539.855012,22.9011079 540.465523,22.2047556 L540.584619,22.084681 C541.090279,24.3592714 542.361947,24.3749333 543.67516,24.6717063 C545.540326,25.093373 545.889699,22.993473 546.607831,22.0838778 C546.405646,25.9595968 546.734048,24.0801683 545.257426,25.7158333 C544.875213,26.1391063 544.491022,26.4423048 544.137693,26.9061381 C542.371839,29.2220921 539.86886,35.0631794 543.09828,36.5735492 C543.936695,36.9659 546.226805,37.3277302 547.149497,36.9418048 C548.104633,36.5422254 548.552922,35.3021238 548.781616,34.0551952 C549.311412,31.1734048 548.829096,28.0097 549.040777,25.1018063 C549.737148,24.9500063 550.183458,25.3540032 550.602863,24.6532333 C550.530852,23.8645159 549.754557,23.8649175 549.028116,23.8199397 C548.992901,22.4461095 548.984988,21.0534048 549.029698,19.6795746 C549.128219,16.6504016 549.544063,17.0817063 549.60737,16.2937921 C549.344252,16.0512333 549.388962,16.1299444 548.992506,15.9978222 C548.527599,15.8432111 548.65896,15.9580651 548.475371,15.6287635 C548.118481,14.7862333 549.062538,13.1750651 548.12956,11.8976159 C547.346143,10.8253778 546.340361,11.0490619 545.083728,10.4414603 C542.40824,9.14714444 541.232718,11.9682952 540.742489,14.2537286 C539.935332,18.0157984 540.812522,20.449819 539.477152,21.963 C538.271164,23.3296016 537.801905,20.9775048 537.752051,19.8976365 C537.575189,16.0721159 539.011849,16.1102667 537.255095,15.4243556 C536.983669,13.6019524 537.541557,12.2895651 536.290463,11.116127 C535.917351,10.7663444 535.042139,10.6173556 534.474755,10.3173698 C533.839713,9.98124127 533.089927,9.78285714 532.238851,9.95594127 C529.552679,10.5021 529.191833,15.0332095 528.948103,17.1162429 C528.836921,18.0651937 528.760557,16.8732825 528.276263,19.0587206 C527.480185,22.6517222 525.790694,23.8669254 525.26802,21.3429492 C525.00609,20.0795556 525.061878,12.3510079 525.409668,11.293227 C525.654981,10.9687444 528.314643,10.8097159 528.893105,10.8209603 C529.517465,10.8330079 529.648035,11.0434397 529.818566,10.8671429 C530.884489,9.42223175 526.12424,9.67483016 525.40769,9.43146825 L525.722639,5.0184254 L525.722639,5.0184254 Z M563.236456,12.4799175 C564.800916,12.0309429 565.255931,14.0220127 565.207264,15.0352175 C565.176007,15.6914111 565.191438,15.3058873 564.90735,15.7263492 C564.286947,16.6447794 564.871345,21.9457317 562.780649,23.0902556 C560.566902,24.3018444 560.769878,19.242246 560.888182,17.7752476 C561.025082,16.0765333 561.418769,13.001981 563.236456,12.4799175 L563.236456,12.4799175 Z M550.372586,11.3976397 C550.321545,12.9891302 550.550636,14.6404571 550.499595,16.2966032 C550.474272,17.1114238 550.452115,17.9298587 550.340933,18.7229937 C550.258239,19.3153349 549.953972,20.2819556 550.087707,20.8052238 C551.222871,21.2080159 551.425056,19.1045016 551.580157,18.1704095 C551.754249,17.1230698 551.862662,15.3552825 552.119053,14.4938778 C552.304224,14.4513095 552.514322,14.3886619 552.756074,14.4047254 C553.909834,14.4822317 553.033831,16.351219 553.158465,18.9426619 C553.255008,20.955819 554.000837,25.4033984 556.825887,24.3387905 C557.912779,23.9291714 558.310027,22.804727 558.810148,21.698354 C559.192361,22.4023365 559.41512,24.2532524 561.023104,24.4990238 C562.722882,24.7592524 563.663379,25.2186683 564.973031,22.3489254 C565.075112,22.1252413 565.110722,21.9810714 565.201725,21.7429302 C565.249601,21.6188397 565.286002,21.5324984 565.348121,21.4321016 C565.468404,21.2377333 565.397184,21.337327 565.532897,21.2031968 C565.73073,22.4593619 566.529973,23.6938413 567.866926,23.7548825 C569.256107,23.8187349 569.991253,22.4898825 570.537271,21.6180365 C570.664676,22.4204079 570.517488,23.7315905 571.154905,24.0685222 C571.741281,24.3789492 573.094852,24.5351667 573.705363,24.2287556 C574.008839,23.8311841 573.915857,22.7549302 573.97402,22.1951175 C574.044053,21.5240651 574.132682,20.8771079 574.246238,20.2225206 C574.355441,19.5960444 574.648234,17.1644333 575.280902,16.8062175 C575.583982,19.099281 574.776429,22.7553317 576.275209,23.4231714 C576.611129,23.5725619 576.975537,23.6107127 577.35498,23.6034841 C578.641288,23.5793889 578.223069,23.1075238 578.689559,21.2437571 C579.008069,19.9723317 579.872994,16.8672587 580.585587,16.0789429 C580.614866,17.9382921 580.259954,19.2587111 580.637419,21.2264889 C581.288684,24.626327 584.23006,25.6632254 586.024402,22.3513349 C586.344099,21.7622063 587.500629,18.9193698 586.914253,18.2394825 C585.972174,17.2507746 586.044185,20.5265222 585.117932,21.8517603 C584.737302,22.3967143 583.832812,23.0015048 583.378984,22.135281 C583.084213,21.5722556 582.999145,20.525719 582.978175,19.7884048 C582.817139,14.0722111 584.754316,14.4163714 582.833757,13.1666317 C582.075267,12.6726794 581.623021,12.5791095 580.584795,12.7280984 C580.094566,13.0043905 578.152245,19.2731683 577.818304,19.8470365 C577.717013,20.0205222 577.760537,19.9474333 577.665181,20.0494365 C577.632737,18.6314317 577.654498,17.1885286 577.656081,15.7677127 C577.656872,15.0384302 577.828987,14.3854492 577.298795,14.0272333 C576.868707,13.7364841 576.182624,13.6401032 575.587543,13.7573667 C574.717079,13.929246 574.308357,15.3886143 574.016356,16.2945952 C573.830393,16.8712746 573.178733,18.9956714 573.123735,19.4197476 L573.122153,12.065881 C572.790981,11.551046 571.353925,11.3707333 570.728378,11.5835746 C570.598204,11.9225143 570.589895,15.9893889 570.571299,16.7198762 C570.542811,17.8266508 570.657949,18.4350556 570.350122,19.1310063 C570.113514,19.665519 570.000749,20.4666857 569.758602,21.0734841 C569.039283,22.8762095 567.834086,22.8159714 567.562264,20.6281238 C567.468096,19.8723365 567.454643,18.9249921 567.518345,18.1471175 C567.576112,17.4403238 567.951203,16.4881603 567.864552,15.9793492 C567.515576,15.5729429 567.459787,15.6974349 567.000815,15.380181 C566.7923,14.2778238 567.083509,13.036919 566.671622,12.0124698 C566.164379,10.7506825 565.672567,11.0008714 564.523159,10.4888476 C563.592159,10.0736063 562.802807,9.56961429 561.546965,10.0928825 C560.632583,10.4739889 560.234543,11.1149222 559.794563,12.0172889 C559.388215,12.850181 559.119954,13.862181 558.951005,14.8657476 C558.801048,15.7560667 558.762668,17.471246 558.551383,18.1567556 C558.120108,19.5574921 557.70189,23.2713714 556.092323,23.0762 C555.168445,22.1971254 555.303367,19.8265556 555.42721,18.4077476 C555.500408,17.5704381 555.612381,16.7845317 555.78964,15.9950111 C555.943158,15.3131159 556.362563,14.4227968 556.327744,13.7581698 C555.500408,12.5313206 553.583806,13.2662254 552.472778,12.6851286 C552.410658,11.9839571 552.534106,11.5205254 552.371092,10.8522841 C551.558395,10.5346286 550.947092,10.9201524 550.372586,11.3976397 L550.372586,11.3976397 Z M514.539952,21.1626365 C514.911086,20.0855794 515.11604,19.5703429 515.159564,18.2382778 C515.854352,19.0470746 518.525488,20.6739048 518.837668,21.6481556 C519.254699,22.9480937 517.533555,22.9625508 516.719672,22.5139778 C516.34102,22.305554 515.995209,22.0091825 515.694107,21.7581905 C515.127119,21.2855222 515.068956,21.4465587 514.539952,21.1626365 L514.539952,21.1626365 Z M507.656167,23.492646 C508.05935,22.3485238 508.498934,17.8832746 509.625789,16.9375365 C509.768624,19.3546905 508.843954,23.3115302 511.905217,23.1862349 C512.914559,23.1448714 513.380257,22.6111619 513.884334,22.2288508 C514.384851,22.9023127 514.532038,23.1247921 515.488757,23.4476683 C517.594488,24.1576746 521.938497,23.8532714 521.473194,21.5067968 C521.065659,19.4498667 515.19003,17.682481 517.21821,14.9211667 C517.532368,14.4930746 518.599082,14.0204063 519.244808,14.4517111 C519.33225,14.5099413 520.198361,15.6500476 521.011453,14.435246 C521.359638,13.9147889 521.765987,12.7453667 521.257161,12.1984048 C520.281451,11.1490571 516.371091,12.1706952 514.91069,13.6368905 C513.534171,15.019154 513.950806,16.4536238 514.894468,17.9025508 C513.809158,18.204946 514.556965,18.1069587 513.858221,20.0767444 C513.549602,20.9469841 513.167785,21.7750571 512.16596,21.6083984 C511.32161,20.2534429 511.937266,17.5579889 511.829645,15.658481 C511.765943,14.5396587 511.340998,13.2035778 510.061812,13.5710302 C509.01963,13.8706143 507.882092,17.1712603 507.361001,18.4973016 C507.264459,17.1403381 507.449234,12.9353175 507.33093,12.2783206 C507.200757,11.5522508 505.450333,11.2129095 505.195525,11.6004413 C505.045963,11.8277397 504.774933,19.8739429 504.745258,20.5321444 C504.710835,21.2891365 504.741301,22.765773 505.125888,23.283419 C505.565472,23.8749571 506.938826,23.6850063 507.656167,23.492646 L507.656167,23.492646 Z M500.221617,15.9725222 C498.065241,16.4138667 497.563933,14.6525048 497.333656,12.6975778 C496.718001,7.46650159 499.372123,5.43165873 500.245357,6.87255397 C500.544875,7.36690794 500.224782,8.86322222 500.22676,9.63266349 C500.231904,11.734973 500.259996,13.8734254 500.221617,15.9725222 L500.221617,15.9725222 Z M500.192338,18.0290508 C500.341899,19.7711365 499.181413,21.5264746 498.384147,22.2501349 C497.298442,23.234827 495.708659,23.867327 493.75605,23.3986746 C491.689491,22.9031159 491.159299,20.9192746 491.846174,19.8482413 C492.254896,19.2109222 492.84879,18.9008968 493.167301,18.1157937 C494.3448,15.214727 489.993274,15.5761556 489.943024,19.7851921 C489.891588,24.0661127 493.065219,25.1704778 496.6907,24.9484 C503.260722,24.5456079 502.91491,18.421 502.91491,13.1236619 C502.91491,11.1137175 502.908975,9.10296984 502.915306,7.09342698 C502.927967,3.33376667 503.023718,4.32327778 500.299167,3.97309365 C499.143033,3.82450635 498.632229,4.06104127 498.048623,4.66703651 C494.584178,8.26445556 493.709758,18.3017286 500.192338,18.0290508 L500.192338,18.0290508 Z" id="company-instagram" sketch:type="MSShapeGroup"></path>
            </g>
        </g>
    </g>
</svg>
