<?xml version="1.0" encoding="UTF-8" standalone="no"?>
<svg width="64px" height="27px" viewBox="0 0 64 27" version="1.1" xmlns="http://www.w3.org/2000/svg" xmlns:xlink="http://www.w3.org/1999/xlink" xmlns:sketch="http://www.bohemiancoding.com/sketch/ns">
    <!-- Generator: Sketch 3.0.4 (8053) - http://www.bohemiancoding.com/sketch -->
    <title>company-rdio</title>
    <desc>Created with Sketch.</desc>
    <defs></defs>
    <g id="Homepage" stroke="none" stroke-width="1" fill="none" fill-rule="evenodd" sketch:type="MSPage">
        <g sketch:type="MSArtboardGroup" transform="translate(-884.000000, -386.000000)" id="django-companies" fill="#93D7B7">
            <g sketch:type="MSLayerGroup" transform="translate(249.000000, 386.000000)">
                <path d="M667.867947,0.849719403 L673.292211,0.849719403 L673.292211,4.81808955 L667.867947,4.81808955 L667.867947,0.849719403 Z M668.003895,24.7084299 L673.155895,24.7084299 L673.155895,6.4545194 L668.003895,6.4545194 L668.003895,24.7084299 Z M648.351211,6.49449552 C647.660421,6.23909254 646.869053,6.11694328 645.952053,6.1576597 C642.901526,6.02181493 641.206789,7.65639403 640.155684,10.1763701 L640.155684,6.49819701 L635.003316,6.49819701 L635.003316,24.7517373 L640.155684,24.7517373 L640.155684,18.0090985 C640.155684,13.8604657 642.062263,11.7824478 645.197895,11.5914507 C645.812053,9.43644179 646.929842,7.72635224 648.351211,6.49449552 Z M697.377368,10.3954985 C694.726579,10.4732299 691.525737,8.38336716 690.285263,7.59642985 C690.169947,7.52351045 690.052789,7.45614328 689.933789,7.39506866 C689.804105,7.3225194 689.669632,7.25552239 689.535526,7.18852537 L689.535526,14.8772657 L689.531842,14.8772657 C689.536263,15.5653731 689.332895,16.2912358 688.904789,16.9874866 L688.867211,17.0489313 C687.627842,19.0621731 685.020158,20.2355463 682.574211,19.4056716 C680.199,18.5994866 679.564579,16.2882746 680.822368,14.2443104 L680.860316,14.1828657 C682.098579,12.1703642 684.706263,10.9958806 687.152579,11.8264955 C687.340842,11.8901612 687.515105,11.9660418 687.680158,12.0493254 L687.680158,6.48857313 C686.804789,6.25056716 685.876,6.11435224 684.897474,6.11435224 C679.236316,6.11435224 675.033368,10.3710687 675.033368,15.6157134 L675.033368,15.6838209 C675.033368,20.9284657 679.202421,25.1170746 684.829684,25.1170746 C690.489737,25.1170746 694.693421,20.8603582 694.693421,15.6157134 L694.693421,15.5472358 C694.693421,15.1389612 694.665053,14.7377194 694.616053,14.3431403 C697.564158,13.571009 698.779947,10.505803 697.377368,10.3954985 Z M660.535263,24.7084299 L660.535263,22.0862925 C659.281895,23.7889791 657.552526,25.0489672 654.875211,25.0489672 C650.637632,25.0489672 646.604158,21.7117015 646.604158,15.6157134 L646.604158,15.5472358 C646.604158,9.45124776 650.570579,6.11435224 654.875211,6.11435224 C657.620316,6.11435224 659.315053,7.3743403 660.535263,8.8382806 L660.535263,0.849719403 L665.687632,0.849719403 L665.687632,24.7084299 L660.535263,24.7084299 Z M652.175789,14.1484418 L652.138211,14.2102567 C650.880053,16.2538507 651.514474,18.5650627 653.889316,19.3712478 C656.335632,20.2011224 658.943316,19.0277493 660.182684,17.0148776 L660.220263,16.9530627 C661.478053,14.9090985 660.843263,12.5978866 658.467684,11.7917015 C656.022105,10.9618269 653.414053,12.1359403 652.175789,14.1484418 L652.175789,14.1484418 Z" id="company-rdio" sketch:type="MSShapeGroup"></path>
            </g>
        </g>
    </g>
</svg>