<?xml version="1.0" encoding="UTF-8" standalone="no"?>
<svg width="103px" height="28px" viewBox="0 0 103 28" version="1.1" xmlns="http://www.w3.org/2000/svg" xmlns:xlink="http://www.w3.org/1999/xlink" xmlns:sketch="http://www.bohemiancoding.com/sketch/ns">
    <!-- Generator: Sketch 3.0.4 (8053) - http://www.bohemiancoding.com/sketch -->
    <title>company-pinterest</title>
    <desc>Created with Sketch.</desc>
    <defs></defs>
    <g id="Homepage" stroke="none" stroke-width="1" fill="none" fill-rule="evenodd" sketch:type="MSPage">
        <g sketch:type="MSArtboardGroup" transform="translate(-409.000000, -388.000000)" id="django-companies" fill="#93D7B7">
            <g sketch:type="MSLayerGroup" transform="translate(249.000000, 386.000000)">
                <path d="M183.359574,11.6316983 C184.463522,11.6316983 185.522641,10.7126455 185.706878,9.57881307 C185.924778,8.47519432 185.176334,7.55614148 184.073207,7.55614148 C182.969753,7.55614148 181.910469,8.47519432 181.723605,9.57881307 C181.508332,10.7126455 182.225906,11.6316983 183.359574,11.6316983 M213.16664,14.8005176 C214.243986,14.8005176 214.618209,15.4553653 214.618209,16.2356653 C214.618209,17.5558699 213.594557,18.3609648 211.993399,18.3609648 C211.420161,18.3609648 210.619007,18.2250034 210.146098,18.0675313 C210.344128,16.8534028 211.123443,14.8005176 213.16664,14.8005176 L213.16664,14.8005176 Z M236.323586,14.8005176 C237.307993,14.8005176 237.775647,15.4553653 237.775647,16.2356653 C237.775647,17.5558699 236.751832,18.3609648 235.150509,18.3609648 C234.577107,18.3609648 233.775953,18.2250034 233.303208,18.0675313 C233.50206,16.8534028 234.380718,14.8005176 236.323586,14.8005176 L236.323586,14.8005176 Z M258.273465,14.9120125 L260.742937,14.9120125 C261.081363,14.9120125 261.279557,14.7745733 261.355913,14.458808 C261.464944,14.0041256 261.663632,13.2108534 261.720447,12.993775 C261.793518,12.7095369 261.628164,12.4941006 261.312891,12.4941006 L258.876095,12.4941006 C259.05163,11.7957386 259.735049,9.52856648 259.735049,8.05023295 C259.735049,5.09816364 257.228631,2.58714773 253.671797,2.58714773 C249.654861,2.58714773 247.041545,5.28272955 247.041545,9.07618295 C247.041545,10.1825932 247.454027,11.4722557 247.965853,12.2722602 C247.752223,12.2601091 247.53186,12.2535409 247.304437,12.2535409 C244.252203,12.2535409 242.329696,13.9093795 242.329696,16.3185886 C242.329696,18.579521 244.112465,19.4583438 245.790471,20.0429119 C247.281284,20.5622909 248.653706,20.804 248.653706,21.9687028 C248.653706,22.7537648 247.898365,23.2143585 246.42036,23.2143585 C244.666655,23.2143585 243.702774,22.3885739 243.457453,22.0754358 C243.623628,21.944729 243.870756,21.6338898 243.870756,21.1159886 C243.870756,20.3915182 243.36205,19.8003818 242.416724,19.8003818 C241.61672,19.8003818 240.94069,20.4526023 240.771231,21.310571 C239.486823,22.3616443 238.085009,23.0424364 236.09682,23.0424364 C234.139338,23.0424364 233.123076,22.0240398 233.123076,19.857525 C233.582027,19.9970989 234.777108,20.1650801 235.566932,20.1650801 C238.881401,20.1650801 241.140855,18.658996 241.140855,15.6428869 C241.140855,14.0210386 239.717038,12.3177449 236.900273,12.3177449 L236.893869,12.3177449 C233.188922,12.3177449 231.113869,14.6645563 230.207788,17.2460159 C229.954092,17.1847676 229.699411,17.124833 229.444894,17.0680182 C229.647686,16.4951085 229.793172,15.831558 229.793172,15.0960858 C229.793172,13.8212017 229.003676,12.3177449 226.89102,12.3177449 C225.419419,12.3177449 224.023516,13.2816256 223.055859,14.7262972 C223.296419,13.7839273 223.456026,13.1565017 223.466535,13.1143011 C223.529425,12.8678301 223.426797,12.5931159 223.042559,12.5931159 L220.874073,12.5931159 C220.565205,12.5931159 220.347141,12.7023119 220.259127,13.0542023 C220.200178,13.2888506 219.455346,16.2121841 218.72989,19.0583415 C218.272909,20.8330642 215.909841,23.0424364 212.939545,23.0424364 C210.98157,23.0424364 209.96613,21.9570443 209.96613,19.7898727 C210.478612,19.9938148 211.620162,20.1650801 212.409657,20.1650801 C215.858938,20.1650801 217.983581,18.658996 217.983581,15.6428869 C217.983581,14.0210386 216.559927,12.3177449 213.742834,12.3177449 L213.736594,12.3177449 C209.564814,12.3177449 207.009463,15.5579932 206.576127,19.2319057 C206.395994,20.7591722 205.106989,22.8563926 203.709608,22.8563926 C203.02898,22.8563926 202.649175,22.428804 202.649175,21.7028557 C202.649175,21.0757585 203.090721,19.5427449 203.574303,17.6215517 C203.736538,16.9790193 203.982516,15.9987182 204.254931,14.9120125 L206.523089,14.9120125 C206.860693,14.9120125 207.058724,14.7745733 207.135572,14.458808 C207.244111,14.0041256 207.443127,13.2108534 207.499613,12.993775 C207.572848,12.7095369 207.408315,12.4941006 207.092057,12.4941006 L204.861831,12.4941006 C204.861831,12.4941006 205.888602,8.39719716 205.913069,8.29194205 C206.011756,7.87535511 205.663478,7.63495966 205.298615,7.71164318 C205.298615,7.71164318 203.574796,8.04908352 203.254926,8.11575057 C202.933577,8.18061136 202.684315,8.35729545 202.568058,8.82068068 C202.55328,8.87995852 201.655081,12.4941006 201.655081,12.4941006 L199.864266,12.4941006 C199.526826,12.4941006 199.328466,12.6318682 199.252768,12.9471409 C199.143736,13.4011665 198.943735,14.1952597 198.888563,14.4123381 C198.814342,14.6965761 198.97986,14.9120125 199.295626,14.9120125 L201.051957,14.9120125 C201.039478,14.9622591 200.417635,17.327954 199.914841,19.4461926 C199.677894,20.4649176 198.88495,22.8483466 197.58642,22.8483466 C196.810882,22.8483466 196.48313,22.4572114 196.48313,21.6177977 C196.48313,20.2961153 197.784123,16.987558 197.784123,15.4862358 C197.784123,13.4809699 196.708255,12.3190585 194.504137,12.3190585 C193.114802,12.3190585 191.674236,13.216108 191.063888,14.0034688 C191.063888,14.0034688 191.248946,13.3589659 191.312329,13.1111813 C191.379981,12.8494392 191.239586,12.5922949 190.895906,12.5922949 L188.740886,12.5922949 C188.282263,12.5922949 188.155497,12.8374523 188.088173,13.1072403 C188.061407,13.2152869 187.285048,16.2648938 186.539395,19.1918398 C186.029376,21.1964489 184.790453,22.8713352 183.465979,22.8713352 C182.784694,22.8713352 182.481573,22.444075 182.481573,21.7177983 C182.481573,21.0905369 182.88683,19.5427449 183.370412,17.6215517 C183.958757,15.2827864 184.477807,13.3571597 184.533309,13.1320352 C184.605723,12.8435278 184.476822,12.5922949 184.105227,12.5922949 L181.93707,12.5922949 C181.544622,12.5922949 181.404063,12.7983716 181.321468,13.0847443 C181.321468,13.0847443 180.711284,15.3946097 180.064974,17.966217 C179.595678,19.8324017 179.077448,21.7333977 179.077448,22.6260136 C179.077448,24.2199472 179.79338,25.4212676 181.760551,25.4212676 C183.27895,25.4212676 184.480599,24.6513125 185.398174,23.6705188 C185.263198,24.2015563 185.177483,24.537683 185.168452,24.5718375 C185.089305,24.8754517 185.185201,25.1439261 185.543002,25.1439261 L187.761406,25.1439261 C188.147615,25.1439261 188.29622,24.9884244 188.37668,24.6518051 C188.454349,24.3304568 190.111501,17.81285 190.111501,17.81285 C190.549435,16.0619369 191.632528,14.902817 193.156674,14.902817 C193.879339,14.902817 194.504794,15.3813091 194.432051,16.3111994 C194.351755,17.334358 193.117922,21.0092557 193.117922,22.6222369 C193.117922,23.8429335 193.570634,25.4222528 195.868841,25.4222528 C197.435352,25.4222528 198.588725,24.6713455 199.427318,23.7022102 C199.734216,24.7307875 200.547849,25.4222528 202.039812,25.4222528 C204.519793,25.4222528 206.014383,23.9514727 206.892549,22.4741244 C207.621124,24.1905545 209.328031,25.421596 211.830836,25.421596 C214.381754,25.421596 216.355821,24.3463847 217.754844,22.8841432 C217.503447,23.8701915 217.333002,24.539325 217.318552,24.595483 C217.239077,24.9038591 217.373397,25.1460608 217.735303,25.1460608 L219.931047,25.1460608 C220.231705,25.1460608 220.445664,24.9931864 220.523825,24.6770926 C220.562577,24.5220835 220.879656,23.2959682 221.32777,21.5540864 C222.184754,18.2202415 223.562266,14.7612727 225.631736,14.7612727 C226.361625,14.7612727 226.660806,15.1694852 226.660806,15.8121818 C226.660806,16.1153034 226.572792,16.3773739 226.496765,16.5177688 C225.493476,16.3182602 224.68641,16.8135011 224.68641,17.8847716 C224.68641,18.5826409 225.420733,19.2169631 226.411872,19.2169631 C227.169183,19.2169631 227.795295,19.0315761 228.294641,18.695121 C228.760982,18.7911807 229.261806,18.9002125 229.765749,19.0153199 C229.688738,19.5164722 229.650314,20.0090858 229.650314,20.4764119 C229.650314,23.1524534 231.560998,25.421596 234.98614,25.421596 C237.669571,25.421596 239.511289,24.4401455 241.101446,23.1815176 C241.865654,24.4319352 243.795222,25.4422858 246.326763,25.4422858 C249.796405,25.4422858 251.764232,23.6380063 251.764232,21.2534278 C251.764232,19.0952875 249.992301,18.3003733 248.165033,17.6392858 C246.679803,17.1026653 245.44088,16.8108739 245.44088,15.7611142 C245.44088,14.9005182 246.118388,14.5069199 247.279314,14.5069199 C248.03252,14.5069199 248.59804,14.669154 248.900013,14.7538835 C249.199522,15.5034773 249.81923,16.3335313 250.877199,16.3335313 C251.772443,16.3335313 252.174415,15.6256455 252.174415,14.9732608 C252.174415,13.1172568 249.082444,12.9226744 249.082444,8.94186364 C249.082444,6.46631591 250.483273,4.42443239 253.384274,4.42443239 C255.399885,4.42443239 256.716149,5.70243636 256.716149,7.76550227 C256.716149,9.46633295 255.684288,12.4941006 255.684288,12.4941006 L253.93124,12.4941006 C253.594292,12.4941006 253.39544,12.6318682 253.319249,12.9471409 C253.210218,13.4011665 253.010545,14.1952597 252.954387,14.4123381 C252.880659,14.6965761 253.046013,14.9120125 253.362271,14.9120125 L255.074268,14.9120125 C255.074268,14.9120125 253.304143,21.438979 253.304143,22.6260136 C253.304143,24.2199472 254.202341,25.420775 256.170497,25.420775 C258.954421,25.420775 260.69384,23.6117335 261.450494,20.9811767 C261.50928,20.7777273 261.394008,20.6118807 261.187931,20.6118807 L260.125856,20.6118807 C259.913868,20.6118807 259.790879,20.7330636 259.737348,20.9401256 C259.497445,21.8737926 258.902861,22.8563926 257.732082,22.8563926 C257.051619,22.8563926 256.671814,22.428804 256.671814,21.7028557 C256.671814,21.0757585 257.086923,19.6077699 257.597599,17.6215517 C257.840129,16.6760619 258.273465,14.9120125 258.273465,14.9120125 Z M170.56607,2.55874034 C163.541728,2.55874034 160,7.59489375 160,11.7945892 C160,14.3374608 160.962731,16.5997068 163.027603,17.4428972 C163.366193,17.5811574 163.669479,17.4476591 163.767673,17.0727801 C163.835982,16.8131727 163.99756,16.1586534 164.06981,15.8864023 C164.168661,15.5154642 164.130237,15.3854142 163.857165,15.0622597 C163.261759,14.3599568 162.881133,13.450592 162.881133,12.1629 C162.881133,8.42658977 165.676715,5.08190739 170.16032,5.08190739 C174.130622,5.08190739 176.311915,7.50786534 176.311915,10.7477852 C176.311915,15.0105352 174.425369,18.608421 171.624697,18.608421 C170.07789,18.608421 168.920248,17.3294318 169.29135,15.7606216 C169.735688,13.8875403 170.596448,11.8663466 170.596448,10.5142864 C170.596448,9.30426307 169.947019,8.29473352 168.602512,8.29473352 C167.021386,8.29473352 165.751264,9.9305392 165.751264,12.1215205 C165.751264,13.5170949 166.22286,14.4609426 166.22286,14.4609426 C166.22286,14.4609426 164.604952,21.3166466 164.321207,22.517146 C163.756343,24.9082926 164.236313,27.839508 164.276872,28.135733 C164.300681,28.3112676 164.526134,28.3528114 164.628269,28.2201341 C164.773919,28.029821 166.657181,25.7048489 167.297414,23.3820114 C167.478532,22.7243722 168.337322,19.3181131 168.337322,19.3181131 C168.851118,20.2980858 170.352276,21.1609807 171.948836,21.1609807 C176.701573,21.1609807 179.926057,16.8281153 179.926057,11.028575 C179.926057,6.643 176.211586,2.55874034 170.56607,2.55874034 Z" id="company-pinterest" sketch:type="MSShapeGroup"></path>
            </g>
        </g>
    </g>
</svg>
