<?xml version="1.0" encoding="UTF-8" standalone="no"?>
<svg width="102px" height="27px" viewBox="0 0 102 27" version="1.1" xmlns="http://www.w3.org/2000/svg" xmlns:xlink="http://www.w3.org/1999/xlink" xmlns:sketch="http://www.bohemiancoding.com/sketch/ns">
    <!-- Generator: Sketch 3.0.4 (8053) - http://www.bohemiancoding.com/sketch -->
    <title>company-mozilla</title>
    <desc>Created with Sketch.</desc>
    <defs></defs>
    <g id="Homepage" stroke="none" stroke-width="1" fill="none" fill-rule="evenodd" sketch:type="MSPage">
        <g sketch:type="MSArtboardGroup" transform="translate(-249.000000, -386.000000)" id="django-companies" fill="#93D7B7">
            <g sketch:type="MSLayerGroup" transform="translate(249.000000, 386.000000)">
                <path d="M99.136901,25.9983801 C98.2763817,25.5179453 97.7303154,25.0567279 97.339785,24.4785105 L97.1132436,24.141641 L96.7830115,24.4332931 C96.3231662,24.8430757 96.140017,24.9787279 95.7196192,25.2279888 C94.7463927,25.8045105 93.4412436,26.0413366 91.8199507,25.935641 C88.4640944,25.7180323 86.7019176,24.105467 86.4719949,21.0408583 C86.3694314,19.677554 86.5976634,18.4369018 87.1245695,17.4862062 C87.846459,16.1833801 89.2598071,15.2739453 91.2457076,14.8325105 C92.2617629,14.607554 93.0862159,14.524467 94.6139618,14.4967714 L96.0318181,14.4690757 L96.0042049,13.7280757 C95.9889894,13.3194236 95.9534866,12.8559453 95.9270005,12.6971192 C95.7861165,11.8622931 95.4361607,11.440641 94.7802049,11.3151627 C94.2718955,11.2190757 94.0363375,11.2134236 93.4519507,11.2852062 C92.3214977,11.4242497 91.1425806,11.8877279 89.6886579,12.7677714 C89.2992546,13.0029018 88.9577518,13.1882931 88.9301386,13.177554 C88.8760391,13.156641 86.9786137,9.96598878 86.9797408,9.89985835 C86.9842491,9.80603226 88.159785,9.15603226 88.9983264,8.78468444 C91.2654314,7.78142357 92.6855419,7.4411627 94.6071994,7.4411627 C96.3936082,7.4411627 97.6271883,7.74242357 98.6235198,8.42238009 C99.0140502,8.68972791 99.6018181,9.29903226 99.8153982,9.65794531 C100.012636,9.9891627 100.253266,10.5882931 100.385697,11.076641 L100.492205,11.4672062 L100.4691,14.1610323 C100.457266,15.6413366 100.445995,17.7953801 100.445995,18.9467279 C100.445995,21.3082062 100.445995,21.3093366 100.802713,22.0068149 C100.956558,22.3103366 101.083354,22.4669018 101.51615,22.8942062 C101.997973,23.3701192 102.03573,23.4198583 101.97205,23.4927714 C101.93373,23.5357279 101.392172,24.1619888 100.767774,24.8837714 C100.142813,25.6044236 99.6085806,26.1995975 99.5804038,26.2052497 C99.5510999,26.211467 99.3527353,26.1170757 99.136901,25.9983801 L99.136901,25.9983801 Z M93.8002159,22.4431627 C94.4928016,22.3561192 95.0659176,22.0808583 95.5933872,21.5851627 L95.8796634,21.315554 L95.9106579,19.5249453 L95.9405253,17.7343366 L95.1989121,17.766554 C92.8579839,17.8671627 91.9828126,18.242467 91.6052436,19.3090323 C91.4852104,19.6459018 91.4390005,20.5299018 91.5229673,20.8842931 C91.7111883,21.6857714 92.3440391,22.3159888 93.0828347,22.4375105 C93.2214645,22.459554 93.3567132,22.4815975 93.3820723,22.4838583 C93.4057408,22.4878149 93.5950889,22.4685975 93.8002159,22.4431627 L93.8002159,22.4431627 Z M72.2280612,25.6846844 C71.4853209,25.5688149 70.8423264,25.3003366 70.2545585,24.8600323 C69.6295971,24.3931627 69.2616082,23.8409453 68.9933651,22.9676844 C68.7425916,22.1532062 68.7476634,22.3883366 68.7172325,12.5252931 C68.6884922,3.57338009 68.685111,3.39251052 68.584238,2.24624965 C68.5267574,1.60472791 68.4929452,1.06720618 68.5070336,1.05307574 C68.5487353,1.01124965 73.0463154,-0.0157503464 73.1021054,0.00346704487 C73.157332,0.0243800883 73.2418623,0.644988784 73.3055419,1.503554 C73.3968347,7.60846704 73.3123043,13.7150757 73.3934535,19.8199888 C73.4289563,21.3002931 73.4419176,21.479467 73.5287021,21.726467 C73.7422822,22.3357714 74.0370115,22.5567714 74.6349231,22.5545105 C74.8242712,22.5545105 75.0079839,22.5443366 75.0446137,22.532467 C75.103785,22.5138149 75.3145474,23.1728583 75.8172215,24.9566844 L75.9085143,25.2833801 L75.1922601,25.4721627 C74.1502822,25.7474236 73.1088679,25.821467 72.2280612,25.6846844 L72.2280612,25.6846844 Z M81.7698513,25.7265105 C81.169122,25.6558583 80.6529231,25.5055105 80.1637739,25.2619018 C78.9442822,24.651467 78.3497518,23.7736844 78.0713651,22.1673366 C78.0341717,21.9553801 78.0099397,19.2321627 77.9890889,12.8016844 C77.9592215,3.76951052 77.9580944,3.73051052 77.8482049,2.41129313 C77.7822712,1.60303226 77.755785,1.07342357 77.7811441,1.05024965 C77.8386248,1.00051052 82.345785,-0.0293155638 82.3750889,0.000640957915 C82.42468,0.0503800884 82.5261165,0.967727914 82.5711994,1.77994531 C82.6912325,8.06798878 82.5514756,14.360554 82.6624922,20.6485975 C82.6934866,21.315554 82.7227905,21.5591627 82.7966137,21.7699888 C82.9211552,22.1232497 83.0924701,22.3431192 83.3291552,22.4476844 C83.5866911,22.5624236 83.9952546,22.6065105 84.1834756,22.5415105 C84.2815308,22.5059018 84.3429563,22.5042062 84.3615529,22.5335975 C84.4055087,22.6065105 85.1516303,25.2556844 85.1330336,25.2749018 C85.124017,25.2850757 84.8490115,25.3675975 84.5221607,25.4602931 C83.7343375,25.6824236 82.4432767,25.8073366 81.7698513,25.7265105 L81.7698513,25.7265105 Z M32.8104148,25.6858149 C32.734901,25.675641 32.4666579,25.6428583 32.2136303,25.6140323 C31.9617297,25.5840757 31.5165364,25.4925105 31.2240612,25.4088583 C28.0862933,24.5146844 26.1263154,21.9146844 25.6715419,18.0491627 C25.6016634,17.4573801 25.602227,15.7950757 25.6721054,15.1722062 C25.8761054,13.3561627 26.4610557,11.713641 27.3610226,10.4317279 C27.971332,9.56298878 28.9732988,8.68746704 29.8755198,8.23359748 C31.0144259,7.65933661 32.0056855,7.4411627 33.4641165,7.4411627 C34.6757187,7.4411627 35.4567795,7.56494531 36.3697076,7.90238009 C38.5849673,8.72138009 40.3741938,10.7307279 41.0211331,13.1238583 C41.5407132,15.044467 41.5311331,18.0101627 41.0002822,19.9352931 C40.5810115,21.4562931 39.8596855,22.6828149 38.7652988,23.7363801 C37.6709121,24.7899453 36.4626911,25.3856844 34.9896082,25.5999018 C34.5568126,25.662641 33.0735861,25.7208583 32.8104148,25.6858149 L32.8104148,25.6858149 Z M34.5539949,22.1187279 C35.5768126,21.6529888 36.0715971,20.608467 36.2981386,18.4380323 C36.3843596,17.6099888 36.3978844,15.5492062 36.3212436,14.7573366 C36.1099176,12.5648583 35.5689231,11.508467 34.430017,11.0659018 C33.8354866,10.8341627 33.0183596,10.894641 32.4142491,11.2139888 C31.3869231,11.7560323 30.9225695,12.9039888 30.765343,15.2875105 C30.6763043,16.6462931 30.758017,18.4713801 30.9586358,19.5673366 C31.2263154,21.0380323 31.6489673,21.6982062 32.569785,22.0865105 C33.0025806,22.2685105 33.2268679,22.3052497 33.778006,22.2809453 C34.1707905,22.264554 34.2851883,22.2402497 34.5539949,22.1187279 L34.5539949,22.1187279 Z M0.484867862,10.408554 C0.411608193,9.80772791 0.272978359,9.26172791 0.108989409,8.92711922 C0.0261496298,8.75698878 -0.0172426354,8.61794531 0.00642587287,8.59703226 C0.0571441049,8.55294531 3.96301151,7.48638009 4.07515515,7.48638009 C4.19011648,7.48638009 4.45328775,8.04029313 4.59079051,8.57159748 C4.65390654,8.81577139 4.70575184,9.05485835 4.70575184,9.10233661 C4.70575184,9.15094531 4.72096731,9.18824965 4.74012753,9.18824965 C4.75928775,9.18711922 4.96047007,9.03168444 5.18757504,8.84064096 C6.04414963,8.12281487 7.17798388,7.63842357 8.2672988,7.52707574 C9.45917725,7.40442357 10.5327132,7.58359748 11.3954866,8.04707574 C11.9477518,8.34494531 12.6048347,8.90168444 12.955354,9.36742357 L13.2303596,9.732554 L13.4073099,9.54829313 C13.8355971,9.10233661 14.6786469,8.46307574 15.2709231,8.13751052 C15.7769784,7.85829313 16.493796,7.63277139 17.1942712,7.53046704 C17.8220502,7.44003226 19.0607021,7.49485835 19.6648126,7.64181487 C20.3326027,7.80403226 20.9068458,8.04820618 21.3390778,8.35398878 C22.2260833,8.98081487 22.5630778,9.53077139 22.7952546,10.7318583 C22.8921828,11.2320757 22.8933099,11.3112062 22.9096524,18.2905105 L22.9259949,25.3438583 L18.4255971,25.3438583 L18.4255971,19.1637714 C18.4255971,15.1908583 18.4086911,12.844641 18.3782601,12.5942497 C18.26668,11.6769018 18.0547905,11.409554 17.3650226,11.3123366 C16.5597297,11.1998583 15.4275861,11.6367714 14.3968789,12.4569018 L14.0210005,12.7559018 L14.0210005,25.3432931 L9.6654314,25.3432931 C9.39887891,21.1702931 10.0328568,16.617467 9.56061372,12.4975975 C9.39380709,11.6882062 9.10584024,11.3925975 8.40029328,11.3066844 C7.57640377,11.2060757 6.45496731,11.5881627 5.49639272,12.2958149 L5.12220488,12.571641 L5.1193872,25.3432931 L0.62293416,25.3432931 C0.466834713,20.4032931 0.900193829,15.3242497 0.484867862,10.408554 L0.484867862,10.408554 Z M43.4387021,22.4211192 L51.5868679,11.1455975 L44.1211441,11.1212931 L44.1211441,7.85490183 L57.1067021,7.85490183 L57.1067021,11.0076844 C54.5690999,14.7013801 51.9621828,18.3475975 49.4437408,22.0548583 L57.4341165,22.0757714 L57.4008679,22.178641 L56.3369121,25.3206844 L43.4325032,25.3438583 L43.4387021,22.4211192 L43.4387021,22.4211192 Z M60.4569231,8.08664096 L60.5606137,8.06346704 C62.0190447,7.82042357 63.483111,7.60620618 64.9421054,7.36994531 L65.092006,7.34451052 L65.092006,25.3432931 L60.4569231,25.3432931 L60.4569231,8.08664096 L60.4569231,8.08664096 Z M62.4524038,5.7771627 C61.3461828,5.66694531 60.3774645,4.82872791 60.0923154,3.7361627 C59.6961496,2.21685835 60.4907353,0.706032262 61.9367684,0.231249654 C62.2095198,0.141945306 62.3616745,0.123293132 62.8339176,0.123293132 C63.7231773,0.123293132 64.2326137,0.325075741 64.8108016,0.903858349 C65.366448,1.4611627 65.6065143,2.07272791 65.6098955,2.93072791 C65.6121496,3.8141627 65.3810999,4.39124965 64.7888237,4.98642357 C64.1745695,5.60420618 63.3867463,5.87098878 62.4524038,5.7771627 L62.4524038,5.7771627 Z" id="company-mozilla" sketch:type="MSShapeGroup"></path>
            </g>
        </g>
    </g>
</svg>