<?xml version="1.0" encoding="utf-8"?>
<!-- Generator: Adobe Illustrator 15.1.0, SVG Export Plug-In  -->
<!DOCTYPE svg PUBLIC "-//W3C//DTD SVG 1.1//EN" "http://www.w3.org/Graphics/SVG/1.1/DTD/svg11.dtd" [
	<!ENTITY ns_flows "http://ns.adobe.com/Flows/1.0/">
]>
<svg version="1.1"
	 xmlns="http://www.w3.org/2000/svg" xmlns:xlink="http://www.w3.org/1999/xlink" xmlns:a="http://ns.adobe.com/AdobeSVGViewerExtensions/3.0/"
	 x="0px" y="0px" width="140px" height="28px" viewBox="0.039 -1 140 28"
	 overflow="visible" enable-background="new 0.039 -1 140 28" xml:space="preserve">
<defs>
</defs>
<path fill="#8E8E8E" d="M9.415,0.488H0v24.41h9.275c8.788,0,13.914-5.23,13.914-12.275v-0.07C23.189,5.51,18.133,0.488,9.415,0.488
	 M16.25,12.729c0,3.939-2.685,6.172-6.729,6.172H6.765V6.486H9.52c4.044,0,6.729,2.266,6.729,6.172V12.729z M27.687,24.896h6.799
	V0.488h-6.799V24.896z M50.179,9.694c-3.383-0.767-4.22-1.256-4.22-2.371V7.254c0-0.872,0.803-1.569,2.44-1.569
	c2.162,0,4.603,0.837,6.835,2.406l3.382-4.778C55.967,1.186,52.724,0.07,48.575,0.07c-5.858,0-9.451,3.277-9.451,7.811v0.07
	c0,5.021,4.01,6.486,9.205,7.67c3.313,0.768,4.115,1.326,4.115,2.338v0.068c0,1.047-0.977,1.674-2.79,1.674
	c-2.824,0-5.509-1.01-7.915-2.928l-3.767,4.498c3,2.686,7.113,4.045,11.438,4.045c5.927,0,9.869-2.963,9.869-7.951v-0.068
	C59.28,12.729,55.791,10.916,50.179,9.694z M88.884,12.693v-0.07C88.884,5.615,83.304,0,75.773,0
	C68.24,0,62.591,5.685,62.591,12.693v0.07c0,7.008,5.579,12.623,13.112,12.623c2.789,0,5.334-0.803,7.427-2.162l2.686,2.404
	l3.417-3.801l-2.511-2.125C88.117,17.715,88.884,15.273,88.884,12.693z M82.015,12.832c0,0.838-0.14,1.639-0.419,2.371l-3.313-2.998
	l-3.417,3.836l3.382,2.895c-0.73,0.277-1.568,0.453-2.474,0.453c-3.731,0-6.242-3.104-6.242-6.625v-0.07
	c0-3.521,2.477-6.591,6.172-6.591c3.767,0,6.312,3.103,6.312,6.661L82.015,12.832L82.015,12.832z M108.83,14.227
	c0,3.418-1.778,5.021-4.5,5.021c-2.718,0-4.496-1.674-4.496-5.195V0.488h-6.87v13.705c0,7.637,4.358,11.158,11.299,11.158
	c6.939,0,11.436-3.451,11.436-11.332V0.488h-6.868V14.227z M130.937,9.694c-3.383-0.767-4.219-1.256-4.219-2.371V7.254
	c0-0.872,0.802-1.569,2.441-1.569c2.16,0,4.602,0.837,6.834,2.406l3.382-4.777c-2.65-2.127-5.892-3.243-10.041-3.243
	c-5.858,0-9.45,3.277-9.45,7.811v0.07c0,5.021,4.01,6.486,9.205,7.672c3.312,0.768,4.114,1.324,4.114,2.336v0.07
	c0,1.045-0.976,1.674-2.79,1.674c-2.824,0-5.51-1.012-7.915-2.93l-3.766,4.498c2.999,2.688,7.113,4.045,11.436,4.045
	c5.929,0,9.87-2.963,9.87-7.949v-0.07C140.039,12.729,136.551,10.916,130.937,9.694z"/>
<rect x="0.039" fill="none" width="140" height="25.629"/>
</svg>
