<?xml version="1.0" encoding="utf-8"?>
<!-- Generator: Adobe Illustrator 15.1.0, SVG Export Plug-In  -->
<!DOCTYPE svg PUBLIC "-//W3C//DTD SVG 1.1//EN" "http://www.w3.org/Graphics/SVG/1.1/DTD/svg11.dtd" [
	<!ENTITY ns_flows "http://ns.adobe.com/Flows/1.0/">
]>
<svg version="1.1"
	 xmlns="http://www.w3.org/2000/svg" xmlns:xlink="http://www.w3.org/1999/xlink" xmlns:a="http://ns.adobe.com/AdobeSVGViewerExtensions/3.0/"
	 x="0px" y="0px" width="190px" height="25px" viewBox="-0.606 -0.016 190 25"
	 overflow="visible" enable-background="new -0.606 -0.016 190 25" xml:space="preserve">
<defs>
</defs>
<g>
	<g>
		<path fill="#8E8E8E" d="M36.91,20.303v-1.524c0.316-0.074,0.651-0.13,0.93-0.167l-3.754-4.498v4.442
			c0.39,0.036,0.836,0.11,1.227,0.223v1.524h-5.26v-1.506c0.483-0.111,1.059-0.205,1.617-0.241V9.504
			c-0.558-0.037-1.133-0.13-1.617-0.241V7.758h5.26v1.523c-0.39,0.112-0.836,0.186-1.227,0.223v4.164l3.717-4.219
			c-0.298-0.019-0.688-0.075-0.967-0.168V7.758h5.093v1.523c-0.372,0.075-0.818,0.149-1.153,0.186l-3.977,4.312l4.237,4.813
			c0.354,0.038,0.799,0.113,1.171,0.187v1.524H36.91z"/>
		<path fill="#8E8E8E" d="M50.125,20.303v-5.911c0-0.948-0.26-1.524-1.133-1.524c-1.208,0-2.156,1.357-2.156,2.974v2.714
			c0.446,0.036,0.948,0.11,1.356,0.223v1.524h-5.353v-1.506c0.483-0.111,1.06-0.205,1.617-0.241v-5.669
			c-0.446-0.074-1.078-0.148-1.617-0.186v-1.487c1.19-0.148,2.621-0.204,3.866-0.167c0,0.427-0.037,1.171-0.13,1.673h0.018
			c0.558-1.078,1.636-1.84,3.141-1.84c2.082,0,2.751,1.32,2.751,2.937v4.74c0.539,0.036,1.078,0.13,1.505,0.241v1.506H50.125z"/>
		<path fill="#8E8E8E" d="M54.493,20.303v-1.506c0.483-0.111,1.06-0.205,1.617-0.241v-5.669c-0.446-0.074-1.078-0.148-1.617-0.186
			v-1.487c1.189-0.148,2.621-0.204,3.996-0.167v7.509c0.521,0.036,1.06,0.13,1.506,0.241v1.506H54.493z M57.299,9.69
			c-0.799,0-1.468-0.632-1.468-1.431c0-0.8,0.669-1.45,1.468-1.45c0.818,0,1.487,0.632,1.487,1.45
			C58.786,9.04,58.117,9.69,57.299,9.69z"/>
		<path fill="#8E8E8E" d="M64.641,24.968c-2.454,0-3.958-0.948-3.958-2.751c0-0.966,0.669-1.858,1.431-2.268
			c-0.557-0.26-0.91-0.781-0.91-1.413c0-0.724,0.464-1.375,1.096-1.653c-0.854-0.465-1.375-1.321-1.375-2.528
			c0-1.859,1.375-3.494,4.071-3.494c0.595,0,1.003,0.075,1.505,0.205h3.142v1.858h-1.265c0.298,0.278,0.465,0.688,0.465,1.171
			c0,1.97-1.32,3.327-3.958,3.327c-0.261,0-0.465-0.019-0.725-0.074c-0.298,0.13-0.446,0.372-0.446,0.594
			c0,0.428,0.353,0.54,1.431,0.577l1.431,0.056c1.989,0.074,3.141,0.929,3.141,2.713C69.715,23.276,67.708,24.968,64.641,24.968z
			 M65.904,20.414l-1.598-0.055h-0.428c-0.539,0.391-0.855,0.892-0.855,1.412c0,0.855,0.78,1.376,1.97,1.376
			c1.542,0,2.36-0.67,2.36-1.543C67.354,20.935,66.927,20.452,65.904,20.414z M64.901,12.59c-1.078,0-1.71,0.687-1.71,1.617
			c0,0.985,0.595,1.598,1.71,1.598c1.041,0,1.672-0.594,1.672-1.579S65.998,12.59,64.901,12.59z"/>
		<path fill="#8E8E8E" d="M77.391,20.303v-5.911c0-0.948-0.26-1.524-1.133-1.524c-1.208,0-2.156,1.357-2.156,2.992v2.695
			c0.464,0.036,0.948,0.11,1.356,0.223v1.524h-5.222v-1.506c0.446-0.111,0.985-0.205,1.505-0.241v-10
			c-0.445-0.074-1.059-0.148-1.561-0.186V6.884c1.152-0.148,2.564-0.205,3.921-0.167v3.996c0,0.557-0.037,1.319-0.149,1.877h0.018
			c0.54-1.022,1.599-1.71,3.049-1.71c2.082,0,2.75,1.32,2.75,2.937v4.74c0.483,0.036,1.041,0.13,1.487,0.241v1.506H77.391z"/>
		<path fill="#8E8E8E" d="M85.699,20.488c-2.044,0-2.677-0.743-2.677-2.899v-4.684h-1.599v-1.84h1.599V8.222l2.361-0.632v3.476
			h2.248v1.84h-2.248v4.052c0,1.188,0.278,1.524,1.096,1.524c0.39,0,0.744-0.037,1.06-0.13l0.167,1.876
			C87.112,20.377,86.349,20.488,85.699,20.488z"/>
		<path fill="#8E8E8E" d="M99.118,10.973c-0.074-0.428-0.148-0.836-0.186-1.283h-2.51v3.457h2.101
			c0.037-0.353,0.111-0.706,0.205-1.022h1.542v3.884h-1.542c-0.094-0.316-0.168-0.651-0.205-1.022h-2.101v3.569
			c0.559,0.036,1.135,0.13,1.617,0.241v1.506H92.39v-1.506c0.482-0.111,1.059-0.205,1.617-0.241V9.504
			c-0.558-0.037-1.134-0.13-1.617-0.241V7.758h8.531v3.215H99.118z"/>
		<path fill="#8E8E8E" d="M106.255,20.488c-2.621,0-4.312-1.357-4.312-4.609c0-2.918,1.915-5,4.721-5
			c2.621,0,4.312,1.431,4.312,4.61C110.976,18.407,109.042,20.488,106.255,20.488z M106.497,12.887c-1.078,0-2.101,0.818-2.101,2.77
			c0,1.839,0.67,2.806,2.063,2.806c1.171,0,2.063-0.948,2.063-2.769C108.523,13.854,107.854,12.887,106.497,12.887z"/>
		<path fill="#8E8E8E" d="M118.967,20.322c0-0.464,0.038-1.153,0.112-1.673h-0.037c-0.539,1.078-1.618,1.839-3.123,1.839
			c-2.1,0-2.77-1.32-2.77-2.937v-4.665c-0.446-0.074-1.003-0.148-1.486-0.186v-1.505c1.078-0.13,2.49-0.186,3.865-0.148v5.929
			c0,0.948,0.261,1.524,1.135,1.524c1.207,0,2.156-1.357,2.156-2.974v-2.658c-0.392-0.056-0.894-0.13-1.357-0.167v-1.524
			c1.097-0.111,2.435-0.167,3.717-0.13v7.435c0.446,0.074,1.022,0.148,1.505,0.185v1.506
			C121.607,20.303,120.176,20.359,118.967,20.322z"/>
		<path fill="#8E8E8E" d="M130.492,20.303v-5.911c0-0.948-0.262-1.524-1.134-1.524c-1.209,0-2.156,1.357-2.156,2.974v2.714
			c0.445,0.036,0.947,0.11,1.355,0.223v1.524h-5.352v-1.506c0.483-0.111,1.06-0.205,1.616-0.241v-5.669
			c-0.445-0.074-1.077-0.148-1.616-0.186v-1.487c1.189-0.148,2.621-0.204,3.865-0.167c0,0.427-0.037,1.171-0.13,1.673h0.019
			c0.558-1.078,1.636-1.84,3.142-1.84c2.081,0,2.75,1.32,2.75,2.937v4.74c0.539,0.036,1.078,0.13,1.506,0.241v1.506H130.492z"/>
		<path fill="#8E8E8E" d="M141.252,20.322c0-0.464,0.037-1.06,0.111-1.562h-0.037c-0.483,1.023-1.505,1.747-2.918,1.747
			c-2.249,0-3.364-1.691-3.364-4.33c0-3.123,1.821-5.279,4.889-5.279c0.39,0,0.761,0.02,1.171,0.075V8.557
			c-0.446-0.074-1.078-0.148-1.617-0.186V6.884c1.171-0.148,2.62-0.205,3.977-0.167v11.765c0.447,0.074,1.061,0.148,1.525,0.185
			v1.488C143.911,20.303,142.479,20.359,141.252,20.322z M141.104,12.924c-0.429-0.093-0.837-0.148-1.245-0.148
			c-1.357,0-2.324,0.855-2.324,3.141c0,1.729,0.502,2.62,1.581,2.62c1.244,0,1.988-1.449,1.988-3.028V12.924z"/>
		<path fill="#8E8E8E" d="M151.196,20.322c0-0.539,0-1.097,0.075-1.58l-0.02-0.019c-0.446,1.041-1.579,1.765-2.954,1.765
			c-1.654,0-2.64-1.021-2.64-2.508c0-2.212,2.193-3.252,5.334-3.29v-0.539c0-0.986-0.391-1.543-1.636-1.543
			c-0.446,0-0.967,0.093-1.357,0.223c-0.036,0.354-0.092,0.8-0.186,1.209h-1.486v-2.696c0.967-0.297,2.101-0.483,3.197-0.483
			c3.029,0,3.865,1.189,3.865,3.216v4.405c0.446,0.074,1.022,0.148,1.506,0.185v1.506C153.817,20.303,152.386,20.359,151.196,20.322
			z M150.992,16.214c-2.118,0-3.066,0.464-3.066,1.412c0,0.614,0.428,1.06,1.115,1.06c1.171,0,1.951-1.097,1.951-2.23V16.214z"/>
		<path fill="#8E8E8E" d="M159.319,20.488c-2.045,0-2.677-0.743-2.677-2.899v-4.684h-1.599v-1.84h1.599V8.222l2.36-0.632v3.476
			h2.249v1.84h-2.249v4.052c0,1.188,0.278,1.524,1.097,1.524c0.39,0,0.743-0.037,1.059-0.13l0.168,1.876
			C160.731,20.377,159.969,20.488,159.319,20.488z"/>
		<path fill="#8E8E8E" d="M162.181,20.303v-1.506c0.482-0.111,1.059-0.205,1.617-0.241v-5.669c-0.447-0.074-1.078-0.148-1.617-0.186
			v-1.487c1.188-0.148,2.62-0.204,3.995-0.167v7.509c0.521,0.036,1.061,0.13,1.506,0.241v1.506H162.181z M164.988,9.69
			c-0.8,0-1.469-0.632-1.469-1.431c0-0.8,0.669-1.45,1.469-1.45c0.817,0,1.485,0.632,1.485,1.45
			C166.473,9.04,165.805,9.69,164.988,9.69z"/>
		<path fill="#8E8E8E" d="M172.682,20.488c-2.62,0-4.312-1.357-4.312-4.609c0-2.918,1.915-5,4.721-5c2.621,0,4.313,1.431,4.313,4.61
			C177.404,18.407,175.47,20.488,172.682,20.488z M172.923,12.887c-1.078,0-2.101,0.818-2.101,2.77c0,1.839,0.67,2.806,2.063,2.806
			c1.171,0,2.063-0.948,2.063-2.769C174.95,13.854,174.281,12.887,172.923,12.887z"/>
		<path fill="#8E8E8E" d="M185.599,20.303v-5.911c0-0.948-0.261-1.524-1.134-1.524c-1.208,0-2.155,1.357-2.155,2.974v2.714
			c0.446,0.036,0.947,0.11,1.355,0.223v1.524h-5.352v-1.506c0.482-0.111,1.059-0.205,1.617-0.241v-5.669
			c-0.446-0.074-1.079-0.148-1.617-0.186v-1.487c1.188-0.148,2.62-0.204,3.865-0.167c0,0.427-0.036,1.171-0.13,1.673h0.019
			c0.558-1.078,1.635-1.84,3.141-1.84c2.082,0,2.752,1.32,2.752,2.937v4.74c0.538,0.036,1.077,0.13,1.505,0.241v1.506H185.599z"/>
	</g>
</g>
<polygon fill="#8E8E8E" points="0,0 6.348,0 0,9.672 6.348,20.225 0,20.225 "/>
<polygon fill="#8E8E8E" points="11.71,0 23.104,0 23.104,4.146 11.71,4.146 11.71,7.706 23.104,7.706 23.104,11.843 11.71,11.843
	11.71,20.225 4.919,9.672 "/>
</svg>
