<?xml version="1.0" encoding="utf-8"?>
<!-- Generator: Adobe Illustrator 15.1.0, SVG Export Plug-In  -->
<!DOCTYPE svg PUBLIC "-//W3C//DTD SVG 1.1//EN" "http://www.w3.org/Graphics/SVG/1.1/DTD/svg11.dtd" [
	<!ENTITY ns_flows "http://ns.adobe.com/Flows/1.0/">
]>
<svg version="1.1"
	 xmlns="http://www.w3.org/2000/svg" xmlns:xlink="http://www.w3.org/1999/xlink" xmlns:a="http://ns.adobe.com/AdobeSVGViewerExtensions/3.0/"
	 x="0px" y="0px" width="120px" height="32px" viewBox="0 -0.412 120 32"
	 overflow="visible" enable-background="new 0 -0.412 120 32" xml:space="preserve">
<defs>
</defs>
<path fill="#8E8E8E" d="M4.932,8.917c0.363,0.561,0.523,1.06,0.726,2.114c1.419-1.385,3.167-2.114,5.077-2.114
	c1.724,0,3.14,0.561,4.235,1.703c0.295,0.287,0.58,0.656,0.825,1.019c1.906-1.952,3.613-2.722,5.899-2.722
	c1.628,0,3.172,0.487,4.114,1.298c1.177,1.017,1.55,2.24,1.55,5.086v14.812h-5.291v-13.75c0-2.493-0.295-2.975-1.714-2.975
	c-1.017,0-2.446,0.693-3.62,1.752v14.973H11.57V16.558c0-2.599-0.377-3.208-1.892-3.208c-1.006,0-2.4,0.521-3.574,1.585v15.179
	H0.779V15.584c0-3.007-0.206-4.307-0.779-5.329L4.932,8.917"/>
<path fill="#8E8E8E" d="M46.835,12.008c1.664,1.951,2.408,4.229,2.408,7.604c0,3.582-0.822,6.027-2.618,8.058
	c-1.578,1.788-3.659,2.892-6.866,2.892c-5.665,0-9.359-4.232-9.359-10.78c0-6.554,3.733-10.91,9.359-10.91
	C42.729,8.872,45.047,9.892,46.835,12.008 M37.032,15.015c-0.373,1.104-0.572,2.567-0.572,4.643c0,2.394,0.246,4.192,0.689,5.247
	c0.491,1.141,1.718,1.709,2.766,1.709c2.362,0,3.371-2.114,3.371-7.037c0-2.809-0.366-4.643-1.094-5.582
	c-0.523-0.686-1.373-1.095-2.354-1.095C38.533,12.901,37.474,13.71,37.032,15.015z"/>
<polyline fill="#8E8E8E" points="66.779,9.281 66.779,13.024 57.577,26.329 67.139,26.329 65.834,30.113 50.502,30.113 
	50.502,26.737 60.297,13.107 51.319,13.107 51.319,9.281 66.779,9.281 "/>
<path fill="#8E8E8E" d="M75.999,3.544c0,1.875-1.489,3.372-3.374,3.372c-1.823,0-3.324-1.497-3.324-3.372
	c0-1.87,1.55-3.379,3.416-3.379C74.544,0.165,75.999,1.675,75.999,3.544 M75.359,8.79v21.324h-5.451V9.646L75.359,8.79z"/>
<path fill="#8E8E8E" d="M85.286,5.419v16.232c0,3.585,0.043,4.067,0.37,4.636c0.206,0.369,0.647,0.57,1.102,0.57
	c0.196,0,0.313,0,0.608-0.076l0.932,3.252c-0.932,0.364-2.073,0.568-3.253,0.568c-2.324,0-4.195-1.096-4.843-2.843
	c-0.408-1.059-0.498-1.713-0.498-4.682V7.527c0-2.724-0.071-4.388-0.274-6.267L85.006,0C85.201,1.138,85.286,2.482,85.286,5.419"/>
<path fill="#8E8E8E" d="M96.595,5.419v16.232c0,3.585,0.046,4.067,0.38,4.636c0.191,0.369,0.632,0.57,1.088,0.57
	c0.206,0,0.33,0,0.618-0.076l0.929,3.252c-0.929,0.364-2.07,0.568-3.254,0.568c-2.322,0-4.195-1.096-4.846-2.843
	c-0.416-1.059-0.484-1.713-0.484-4.682V7.527c0-2.724-0.082-4.388-0.291-6.267L96.302,0C96.525,1.138,96.595,2.482,96.595,5.419"/>
<path fill="#8E8E8E" d="M105.149,10.056c2.025-0.857,3.77-1.22,5.688-1.22c3.506,0,5.902,1.298,6.724,3.62
	c0.27,0.854,0.396,1.504,0.371,3.744l-0.133,6.995c0,0.122,0,0.253,0,0.369c0,2.235,0.37,3.093,1.964,4.271l-2.896,3.343
	c-1.273-0.534-2.406-1.472-2.938-2.526c-0.401,0.41-0.854,0.808-1.266,1.096c-1.009,0.733-2.485,1.143-4.191,1.143
	c-4.639,0-7.161-2.365-7.161-6.507c0-4.891,3.386-7.173,10.013-7.173c0.397,0,0.775,0,1.228,0.048v-0.851
	c0-2.324-0.452-3.097-2.458-3.097c-1.728,0-3.779,0.85-6.014,2.359l-2.321-3.909C102.866,11.067,103.681,10.664,105.149,10.056
	 M112.214,21.001c-3.77,0-5.091,0.686-5.091,3.178c0,1.62,1.03,2.72,2.413,2.72c1.014,0,2.038-0.529,2.845-1.422l0.09-4.476H112.214
	z"/>
</svg>
