<?xml version="1.0" encoding="utf-8"?>
<!-- Generator: Adobe Illustrator 17.0.0, SVG Export Plug-In . SVG Version: 6.00 Build 0)  -->
<!DOCTYPE svg PUBLIC "-//W3C//DTD SVG 1.1 Basic//EN" "http://www.w3.org/Graphics/SVG/1.1/DTD/svg11-basic.dtd">
<svg version="1.1" baseProfile="basic" id="Layer_1"
	 xmlns="http://www.w3.org/2000/svg" xmlns:xlink="http://www.w3.org/1999/xlink" x="0px" y="0px" width="395.498px"
	 height="121.03px" viewBox="0 0 395.498 121.03" xml:space="preserve">
<g opacity="0.41">
	<g>
		<g>
			<g>
				<path fill="#F2F8F4" d="M47.51,51.957L74.628,64.32l27.362-23.973c0.398-1.98,0.591-3.95,0.591-6.015
					c0-16.868-13.723-30.591-30.591-30.591c-10.09,0-19.503,4.966-25.225,13.299l-4.552,23.615L47.51,51.957z"/>
			</g>
			<g>
				<path fill="#F2F8F4" d="M19.437,80.676c-0.397,1.977-0.598,4.029-0.598,6.105c0,16.913,13.76,30.674,30.674,30.674
					c10.175,0,19.633-5.017,25.347-13.432l4.517-23.533l-6.03-11.52L46.121,56.558L19.437,80.676z"/>
			</g>
			<g>
				<path fill="#F2F8F4" d="M19.266,33.743l18.585,4.389l4.072-21.13c-2.539-1.942-5.674-3.004-8.899-3.004
					c-8.077,0-14.647,6.571-14.647,14.648C18.377,30.429,18.676,32.141,19.266,33.743z"/>
			</g>
			<g>
				<path fill="#F2F8F4" d="M17.652,38.17C9.349,40.92,3.575,48.881,3.575,57.638c0,8.524,5.273,16.138,13.187,19.15l26.076-23.571
					l-4.79-10.23L17.652,38.17z"/>
			</g>
			<g>
				<path fill="#F2F8F4" d="M79.627,104.021c2.548,1.958,5.668,3.029,8.853,3.029c8.077,0,14.648-6.57,14.648-14.647
					c0-1.782-0.298-3.493-0.888-5.096l-18.57-4.345L79.627,104.021z"/>
			</g>
			<g>
				<path fill="#F2F8F4" d="M83.405,78.096l20.445,4.783c8.306-2.747,14.079-10.708,14.079-19.468
					c0-8.509-5.284-16.112-13.215-19.117L77.975,67.72L83.405,78.096z"/>
			</g>
		</g>
		<path fill="#F2F9F4" d="M161.539,71.883c0,0.114,0.043,0.585,0.13,1.41c0.084,0.827,0.283,1.809,0.598,2.949
			c0.313,1.14,0.768,2.351,1.366,3.631c0.598,1.282,1.41,2.465,2.437,3.547c1.025,1.084,2.293,1.982,3.801,2.694
			c1.509,0.712,3.348,1.066,5.513,1.066c1.766,0,3.275-0.14,4.529-0.427c1.252-0.283,2.364-0.71,3.333-1.28
			c0.969-0.57,1.852-1.295,2.649-2.18c0.799-0.883,1.595-1.923,2.394-3.119c0.455-0.684,0.967-1.168,1.539-1.453
			c0.568-0.285,1.166-0.427,1.794-0.427c1.025,0,1.967,0.371,2.819,1.112c0.855,0.74,1.282,1.679,1.282,2.819
			c0,0.684-0.371,1.71-1.11,3.076c-0.743,1.369-1.923,2.735-3.547,4.104c-1.625,1.366-3.719,2.562-6.282,3.59
			c-2.565,1.025-5.699,1.537-9.401,1.537c-3.76,0-7.124-0.684-10.085-2.051c-2.962-1.366-5.455-3.206-7.478-5.513
			c-2.023-2.308-3.562-4.999-4.615-8.076c-1.053-3.076-1.58-6.295-1.58-9.658c0-3.473,0.54-6.763,1.623-9.869
			c1.081-3.104,2.636-5.798,4.658-8.076c2.021-2.28,4.458-4.089,7.307-5.427c2.847-1.338,6.038-2.01,9.572-2.01
			c3.247,0,6.282,0.486,9.101,1.453c2.821,0.969,5.269,2.381,7.35,4.231c2.079,1.852,3.717,4.117,4.913,6.793
			c1.198,2.679,1.796,5.727,1.796,9.144c0,2.109-0.514,3.704-1.539,4.788c-1.025,1.081-2.221,1.623-3.59,1.623H161.539z
			 M169.574,52.139c-1.483,0.628-2.722,1.412-3.717,2.351c-0.999,0.941-1.783,1.982-2.351,3.119c-0.57,1.14-0.997,2.195-1.282,3.162
			c-0.285,0.969-0.458,1.809-0.514,2.521c-0.056,0.712-0.084,1.125-0.084,1.239h27.689c0-1.766-0.285-3.447-0.855-5.043
			c-0.57-1.593-1.44-3.005-2.606-4.231c-1.17-1.224-2.664-2.206-4.488-2.947c-1.824-0.74-3.961-1.112-6.409-1.112
			C172.848,51.2,171.054,51.513,169.574,52.139z"/>
		<path fill="#F2F9F4" d="M212.559,90c0,1.254-0.427,2.321-1.282,3.203c-0.855,0.885-1.908,1.325-3.162,1.325
			c-1.252,0-2.321-0.44-3.203-1.325c-0.885-0.883-1.325-1.949-1.325-3.203V30.945c0-1.252,0.44-2.308,1.325-3.162
			c0.883-0.855,1.951-1.282,3.203-1.282c1.254,0,2.308,0.427,3.162,1.282c0.855,0.855,1.282,1.91,1.282,3.162V90z"/>
		<path fill="#F2F9F4" d="M227.985,59.105c-0.598,0.313-1.211,0.471-1.837,0.471c-1.142,0-2.195-0.371-3.162-1.112
			c-0.969-0.74-1.453-1.766-1.453-3.076c0-0.514,0.14-1.14,0.427-1.88c0.512-1.196,1.196-2.379,2.051-3.547
			c0.855-1.168,2.008-2.208,3.46-3.119s3.249-1.638,5.386-2.18c2.135-0.54,4.743-0.812,7.819-0.812
			c5.811,0,10.439,1.155,13.887,3.463c3.447,2.305,5.172,5.712,5.172,10.213v32.492c0,1.254-0.427,2.321-1.282,3.203
			c-0.855,0.885-1.91,1.325-3.162,1.325c-1.254,0-2.323-0.44-3.206-1.325c-0.883-0.883-1.323-1.949-1.323-3.203v-1.983
			c-1.17,1.964-4.63,4.501-7.393,5.3c-2.763,0.799-5.684,1.196-8.76,1.196c-1.936,0-3.888-0.27-5.854-0.812
			c-1.964-0.542-3.732-1.382-5.297-2.521c-1.569-1.14-2.837-2.565-3.804-4.274c-0.969-1.708-1.453-3.758-1.453-6.152
			c0-2.735,0.54-5.626,1.623-7.478c1.081-1.85,2.534-3.376,4.358-4.572c1.822-1.196,3.916-2.107,6.282-2.735
			c2.364-0.626,4.857-1.081,7.478-1.366c3.02-0.343,5.384-0.727,7.093-1.155s2.992-0.926,3.847-1.496
			c0.855-0.568,1.379-1.224,1.58-1.964c0.199-0.74,0.3-1.567,0.3-2.478c0-1.081-0.315-2.023-0.941-2.821
			c-0.628-0.797-1.425-1.453-2.392-1.964c-0.969-0.514-2.053-0.898-3.249-1.155s-2.364-0.384-3.504-0.384
			c-2.051,0-3.704,0.171-4.956,0.512c-1.254,0.343-2.28,0.799-3.076,1.369c-0.799,0.57-1.44,1.254-1.923,2.051
			c-0.486,0.799-0.928,1.623-1.325,2.478C229.054,58.294,228.583,58.792,227.985,59.105z M248.624,70.002
			c-1.084,0.341-2.351,0.598-3.804,0.768c-1.453,0.171-2.964,0.371-4.529,0.598c-1.567,0.229-3.091,0.514-4.572,0.855
			c-1.483,0.341-2.821,0.842-4.017,1.496c-1.196,0.656-2.152,1.496-2.862,2.521c-0.715,1.025-1.069,2.934-1.069,4.529
			c0,1.254,0.27,2.295,0.812,3.119c0.542,0.827,1.239,1.483,2.094,1.967c0.855,0.484,1.822,0.827,2.906,1.025
			c1.081,0.199,2.165,0.298,3.247,0.298c1.654,0,3.305-0.183,4.958-0.555c1.651-0.369,3.147-0.982,4.486-1.837
			s2.422-2.01,3.249-3.434c0.825-1.423,1.239-3.773,1.239-5.88v-6.068L248.624,70.002z"/>
		<path fill="#F2F9F4" d="M305.199,86.283c-1.14,1.964-2.649,3.56-4.529,4.786s-4.076,2.107-6.582,2.649
			c-2.506,0.542-5.127,0.812-7.862,0.812c-3.875,0-7.137-0.585-9.785-1.751c-2.649-1.168-4.816-2.536-6.495-4.104
			c-1.682-1.565-2.893-3.119-3.633-4.656c-0.74-1.539-1.11-2.707-1.11-3.506c0-1.308,0.471-2.377,1.41-3.203
			c0.939-0.827,1.951-1.239,3.033-1.239c0.684,0,1.338,0.199,1.967,0.598c0.626,0.399,1.112,1.025,1.453,1.88
			c0.969,2.45,2.521,4.501,4.658,6.152c2.135,1.654,5.198,2.478,9.187,2.478c1.822,0,3.389-0.214,4.699-0.641
			c1.31-0.425,2.379-0.995,3.206-1.708c0.825-0.712,1.438-1.509,1.837-2.394c0.397-0.883,0.598-1.807,0.598-2.778
			c0-1.936-0.768-3.389-2.308-4.358c-1.537-0.967-3.447-1.736-5.725-2.308c-2.28-0.568-4.773-1.094-7.48-1.58
			c-2.705-0.484-5.198-1.196-7.478-2.137c-2.28-0.939-4.188-2.277-5.725-4.015c-1.539-1.738-2.308-4.147-2.308-7.223
			c0-4.445,1.623-7.918,4.87-10.426c3.249-2.506,7.778-3.76,13.589-3.76c3.249,0,5.984,0.343,8.205,1.025
			c2.221,0.684,4.045,1.567,5.47,2.651c0.568,0.455,1.166,1.01,1.794,1.667c0.626,0.654,1.224,1.366,1.796,2.135
			c0.568,0.771,1.038,1.526,1.41,2.264c0.369,0.743,0.555,1.397,0.555,1.967c0,1.31-0.512,2.351-1.539,3.119
			c-1.025,0.768-2.135,1.155-3.333,1.155c-0.74,0-1.518-0.061-2.051-0.557c-0.615-0.572-1.034-1.323-1.258-1.799
			c-0.456-1.081-1.134-1.974-1.648-2.773c-0.512-0.797-1.183-1.453-2.008-1.964c-0.827-0.514-1.824-0.898-2.992-1.155
			s-2.636-0.384-4.402-0.384c-3.475,0-5.997,0.555-7.562,1.667c-1.569,1.112-2.351,2.493-2.351,4.145
			c0,1.254,0.456,2.264,1.366,3.033c0.911,0.771,2.122,1.427,3.633,1.967c1.509,0.542,3.232,0.997,5.17,1.369
			c1.936,0.369,3.903,0.797,5.897,1.28c1.992,0.486,3.959,1.056,5.898,1.71c1.934,0.656,3.659,1.539,5.17,2.649
			c1.509,1.112,2.72,2.465,3.631,4.06c0.911,1.595,1.369,3.59,1.369,5.982C306.909,81.91,306.339,84.317,305.199,86.283z"/>
		<path fill="#F2F9F4" d="M324.776,44.518h4.699c1.082,0,2.01,0.384,2.778,1.153c0.768,0.771,1.153,1.697,1.153,2.778
			c0,1.14-0.384,2.081-1.153,2.821c-0.768,0.74-1.697,1.11-2.778,1.11h-4.699V90c0,1.254-0.443,2.321-1.325,3.203
			c-0.883,0.885-1.951,1.325-3.206,1.325c-1.252,0-2.305-0.44-3.16-1.325c-0.855-0.883-1.282-1.949-1.282-3.203V52.38h-4.583
			c-1.084,0-2.008-0.369-2.778-1.11c-0.768-0.74-1.153-1.682-1.153-2.821c0-1.081,0.384-2.008,1.153-2.778
			c0.771-0.768,1.695-1.153,2.778-1.153h4.583v-9.641c0-1.252,0.427-2.308,1.282-3.162c0.855-0.855,1.908-1.28,3.16-1.28
			c1.254,0,2.323,0.425,3.206,1.28c0.883,0.855,1.325,1.91,1.325,3.162V44.518z"/>
		<path fill="#F2F9F4" d="M338.794,27.954c0.995-0.967,2.206-1.453,3.631-1.453c1.369,0,2.549,0.486,3.547,1.453
			c0.997,0.969,1.496,2.167,1.496,3.59c0,1.369-0.499,2.552-1.496,3.547c-0.997,0.997-2.178,1.496-3.547,1.496
			c-1.425,0-2.636-0.499-3.631-1.496c-0.997-0.995-1.496-2.178-1.496-3.547C337.298,30.121,337.797,28.923,338.794,27.954z
			 M346.87,90c0,1.254-0.427,2.321-1.282,3.203c-0.855,0.885-1.908,1.325-3.162,1.325c-1.254,0-2.321-0.44-3.203-1.325
			c-0.885-0.883-1.325-1.949-1.325-3.203V49.049c0-1.254,0.44-2.323,1.325-3.206c0.883-0.883,1.949-1.325,3.203-1.325
			c1.254,0,2.308,0.443,3.162,1.325c0.855,0.883,1.282,1.951,1.282,3.206V90z"/>
		<path fill="#F2F9F4" d="M366.143,92.692c-2.88-1.224-5.371-2.949-7.48-5.17c-2.107-2.223-3.76-4.885-4.956-7.991
			c-1.196-3.104-1.794-6.539-1.794-10.299c0-3.817,0.598-7.277,1.794-10.383c1.196-3.104,2.849-5.768,4.956-7.989
			c2.109-2.223,4.6-3.946,7.48-5.172c2.875-1.224,5.995-1.837,9.358-1.837c3.417,0,6.379,0.501,8.887,1.496
			c2.506,0.997,4.572,2.18,6.195,3.547c1.625,1.366,3.134,2.89,3.934,4.371c0.47,0.871,0.895,1.531,0.895,2.557
			c0,1.312-0.455,2.323-1.366,3.035c-0.913,0.712-1.939,1.069-3.076,1.069c-0.799,0-1.539-0.199-2.223-0.598
			c-0.684-0.399-1.164-1.306-1.759-2.125c-1.031-1.419-0.45-0.617-1.104-1.471c-0.656-0.855-1.483-1.623-2.478-2.308
			c-0.997-0.682-2.167-1.224-3.504-1.623c-1.341-0.397-2.808-0.598-4.402-0.598c-1.768,0-3.519,0.328-5.256,0.982
			c-1.74,0.656-3.305,1.697-4.702,3.119c-1.397,1.425-2.519,3.29-3.374,5.597s-1.282,5.086-1.282,8.332
			c0,3.249,0.427,6.012,1.282,8.291s1.977,4.132,3.374,5.554c1.397,1.425,2.962,2.465,4.702,3.119
			c1.738,0.656,3.488,0.982,5.256,0.982c1.593,0,3.061-0.199,4.402-0.598c1.336-0.397,2.506-0.939,3.504-1.623
			c0.995-0.684,1.822-1.453,2.478-2.308c0.654-0.855,1.125-1.738,1.41-2.649c0.285-0.969,0.768-1.651,1.453-2.051
			c0.684-0.399,1.425-0.598,2.223-0.598c1.138,0,2.178,0.356,3.119,1.066c0.939,0.715,1.41,1.697,1.41,2.949
			c0,0.628-0.287,1.667-0.855,3.119c-0.57,1.453-1.595,2.921-3.076,4.402c-1.483,1.483-3.519,2.793-6.111,3.931
			c-2.593,1.14-5.913,1.71-9.956,1.71C372.137,94.529,369.018,93.918,366.143,92.692z"/>
	</g>
</g>
</svg>
