<?xml version="1.0" encoding="UTF-8" standalone="no"?>
<svg width="70px" height="28px" viewBox="0 0 70 28" version="1.1" xmlns="http://www.w3.org/2000/svg" xmlns:xlink="http://www.w3.org/1999/xlink" xmlns:sketch="http://www.bohemiancoding.com/sketch/ns">
    <!-- Generator: Sketch 3.0.4 (8053) - http://www.bohemiancoding.com/sketch -->
    <title>logo-mediatemple</title>
    <desc>Created with Sketch.</desc>
    <defs></defs>
    <g id="Page-3" stroke="none" stroke-width="1" fill="none" fill-rule="evenodd" sketch:type="MSPage">
        <g id="Homepage" sketch:type="MSArtboardGroup" transform="translate(-233.000000, -2986.000000)" fill="#F1FFF8" opacity="0.287215909">
            <path d="M247.112488,2994.49079 L247.112488,2996.16777 L247.212802,2996.16777 C250.188771,2994.35278 253.262481,2994.20869 255.099848,2994.20869 C260.058081,2994.20869 261.74455,2995.64176 262.3893,2996.16777 C263.529616,2995.49941 266.008304,2994.20869 270.222331,2994.20869 C278.656386,2994.20869 278.656386,2997.57654 278.656386,2998.9393 L278.656386,3006.87457 L271.861643,3006.87457 L271.861643,2999.80557 C271.861643,2998.34125 271.861643,2996.71809 268.239209,2996.71809 C266.455,2996.71809 264.619347,2997.26753 263.976312,2998.07911 C263.380432,2998.77265 263.131792,2999.39413 263.131792,3000.92355 L263.131792,3006.87371 L256.337906,3006.87371 L256.337906,3000.08506 C256.337906,2997.98276 256.386777,2996.71722 252.818358,2996.71722 C251.032433,2996.71722 249.198496,2997.19549 248.50316,2997.91159 C247.957866,2998.46103 247.608054,2999.03478 247.608054,3000.85585 L247.608054,3006.87371 L240.817598,3006.87371 L240.817598,2994.49079 L247.112488,2994.49079 Z M295.037504,2997.23281 L290.107565,2997.23281 L290.107565,3002.19431 C290.107565,3003.94767 290.107565,3004.52055 292.124124,3004.52055 C293.080104,3004.52055 293.928054,3004.40771 294.826589,3004.23411 L295.037504,3004.21154 L295.671966,3006.72875 C293.29102,3007.17837 290.689726,3007.22438 289.949806,3007.22438 C287.724903,3007.22438 284.858679,3006.88933 283.801529,3005.96838 C282.899564,3005.20714 282.792391,3004.47021 282.792391,3002.59619 L282.792391,2997.23194 L279.452893,2997.23194 L279.452893,2994.64443 L282.792391,2994.64443 L282.792391,2992.1984 L290.106707,2990.27751 L290.106707,2994.6453 L295.036647,2994.6453 L295.036647,2997.23281 L295.037504,2997.23281 Z M237.493533,3013.87674 C234.791069,3009.7494 233,3004.84605 233,2999.9106 C233,2994.08457 235.262628,2989.33486 237.55012,2986 L240.280878,2986 C238.25403,2990.5492 236.876219,2994.41007 236.876219,3000.03038 C236.876219,3006.47616 239.133702,3011.44113 240.162559,3013.6962 C240.192568,3013.72832 240.251727,3013.84723 240.251727,3013.87674 L237.493533,3013.87674 Z M298.510754,2986.06163 C301.209789,2990.19158 303,2995.09839 303,3000.03038 C303,3005.85467 300.740802,3010.60438 298.451595,3013.93837 L295.718265,3013.93837 C297.744256,3009.38483 299.126353,3005.52396 299.126353,2999.90886 C299.126353,2993.45787 296.866298,2988.49811 295.835726,2986.23696 C295.807432,2986.20919 295.748273,2986.0894 295.748273,2986.05989 L298.510754,2986.06163 Z M241.560948,3010.08792 L242.357454,3010.08792 L242.357454,3010.449 L242.377174,3010.449 C242.659252,3010.21898 243.183969,3010.02629 243.941037,3010.02629 C244.687815,3010.02629 245.211675,3010.18426 245.424306,3010.48372 C245.605213,3010.34224 246.058767,3010.02629 247.037039,3010.02629 C248.65063,3010.02629 248.661776,3010.71461 248.661776,3010.90123 L248.661776,3012.68671 L247.772672,3012.68671 L247.772672,3011.04532 C247.772672,3010.79447 247.772672,3010.40908 246.83384,3010.40908 C246.452305,3010.40908 245.997893,3010.50282 245.785263,3010.67989 C245.615501,3010.82572 245.552055,3010.98369 245.552055,3011.17639 L245.552055,3012.68671 L244.668953,3012.68671 L244.668953,3010.99585 C244.668953,3010.74847 244.61751,3010.40994 243.749841,3010.40994 C243.275709,3010.40994 242.832443,3010.53407 242.670398,3010.71114 C242.48006,3010.92207 242.448337,3011.11216 242.448337,3011.33784 L242.448337,3012.68845 L241.560948,3012.68845 L241.560948,3010.08792 Z M250.155333,3011.13646 C250.205918,3010.7936 250.658615,3010.38911 251.648033,3010.38911 C252.284209,3010.38911 252.787492,3010.58094 252.969257,3010.80489 C253.071285,3010.93161 253.091005,3011.04011 253.112439,3011.13646 L250.155333,3011.13646 Z M253.080716,3011.84996 C252.969257,3011.99926 252.69661,3012.38552 251.698618,3012.38552 C250.911543,3012.38552 250.17591,3012.11991 250.104747,3011.49668 L254.017834,3011.49668 C254.100142,3010.09139 252.093014,3010.02629 251.648033,3010.02629 C250.054162,3010.02629 249.196781,3010.61479 249.196781,3011.40641 C249.196781,3012.20844 250.074739,3012.74747 251.697761,3012.74747 C252.988977,3012.74747 253.724609,3012.39593 253.988683,3011.90464 L253.080716,3011.84996 L253.080716,3011.84996 L253.080716,3011.84996 L253.080716,3011.84996 Z M255.180442,3011.38558 C255.180442,3011.19722 255.238744,3010.38911 256.571114,3010.38911 C257.650556,3010.38911 258.00294,3010.92033 258.00294,3011.42724 C258.00294,3012.31781 256.893489,3012.38552 256.610553,3012.38552 C256.096125,3012.38552 255.180442,3012.20324 255.180442,3011.38558 L255.180442,3011.38558 Z M257.98322,3012.68585 L258.808878,3012.68585 L258.808878,3009.09319 L257.922346,3009.09319 L257.922346,3010.38217 L257.902626,3010.38217 C257.629979,3010.17645 257.134413,3010.02542 256.481089,3010.02542 C255.169296,3010.02542 254.270761,3010.53754 254.270761,3011.38471 C254.270761,3012.21712 255.279898,3012.74574 256.521386,3012.74574 C256.712581,3012.74574 257.488511,3012.74574 257.9635,3012.35427 L257.98322,3012.35427 L257.98322,3012.68585 L257.98322,3012.68585 L257.98322,3012.68585 L257.98322,3012.68585 Z M259.687693,3010.08792 L260.575939,3010.08792 L260.575939,3012.68585 L259.687693,3012.68585 L259.687693,3010.08792 L259.687693,3010.08792 Z M259.687693,3009.09319 L260.575939,3009.09319 L260.575939,3009.59489 L259.687693,3009.59489 L259.687693,3009.09319 L259.687693,3009.09319 L259.687693,3009.09319 L259.687693,3009.09319 Z M264.780535,3011.54182 C264.780535,3011.75882 264.741095,3011.96454 264.387855,3012.15636 C263.972882,3012.3751 263.378717,3012.40201 263.126647,3012.40201 C262.327568,3012.40201 262.076356,3012.17372 262.076356,3011.98884 C262.076356,3011.63817 262.773406,3011.58869 263.317843,3011.5479 C263.780829,3011.51231 264.436725,3011.44634 264.779678,3011.38384 L264.780535,3011.54182 L264.780535,3011.54182 Z M262.149233,3010.88474 C262.260693,3010.66774 262.400446,3010.38911 263.511611,3010.38911 C264.812258,3010.38911 264.80197,3010.75541 264.781392,3011.03577 C264.277252,3011.12518 263.319558,3011.17639 263.188379,3011.18767 C262.613076,3011.22153 261.131522,3011.31006 261.131522,3012.00099 C261.131522,3012.43239 261.766841,3012.74921 262.916589,3012.74921 C263.481603,3012.74921 264.096345,3012.68324 264.842266,3012.36642 C264.863701,3012.43239 264.882563,3012.55217 265.024031,3012.68758 L265.952575,3012.68758 C265.668782,3012.43673 265.668782,3012.26573 265.668782,3011.60084 L265.668782,3011.008 C265.668782,3010.55577 265.668782,3010.02802 263.641933,3010.02802 C261.623659,3010.02802 261.383592,3010.60004 261.283279,3010.83353 L262.149233,3010.88474 L262.149233,3010.88474 L262.149233,3010.88474 L262.149233,3010.88474 Z M268.966268,3010.63302 L268.029151,3010.63302 L268.029151,3011.6833 C268.029151,3012.05394 268.029151,3012.17199 268.4124,3012.17199 C268.59245,3012.17199 268.754495,3012.14768 268.925971,3012.11296 L268.966268,3012.11036 L269.089731,3012.64158 C268.633604,3012.73445 268.141468,3012.74661 267.998285,3012.74661 C267.575596,3012.74661 267.032017,3012.67543 266.828818,3012.48013 C266.658199,3012.31694 266.637622,3012.16331 266.637622,3011.76837 L266.637622,3010.63389 L266.002303,3010.63389 L266.002303,3010.08878 L266.637622,3010.08878 L266.637622,3009.57146 L268.029151,3009.16436 L268.029151,3010.08705 L268.966268,3010.08705 L268.966268,3010.63302 L268.966268,3010.63302 L268.966268,3010.63302 L268.966268,3010.63302 Z M270.339792,3011.16163 C270.328646,3010.82051 270.722184,3010.55317 271.377223,3010.55317 C271.589854,3010.55317 272.377786,3010.59396 272.406937,3011.16163 L270.339792,3011.16163 L270.339792,3011.16163 Z M272.326344,3011.85951 C272.256038,3011.97756 272.093136,3012.21799 271.448386,3012.21799 C270.662167,3012.21799 270.329504,3011.89249 270.309784,3011.58435 L273.779604,3011.58435 C273.809612,3010.81443 273.265176,3010.02629 271.298344,3010.02629 C269.644456,3010.02629 268.897678,3010.69986 268.897678,3011.40294 C268.897678,3011.61647 268.977414,3011.87253 269.210622,3012.12685 C269.766204,3012.71883 270.975111,3012.74747 271.427809,3012.74747 C273.16229,3012.74747 273.597839,3012.13727 273.710156,3011.97408 L272.326344,3011.85951 L272.326344,3011.85951 L272.326344,3011.85951 L272.326344,3011.85951 Z M275.422346,3010.08792 L275.422346,3010.43772 L275.442923,3010.43772 C276.048234,3010.0558 276.673264,3010.02542 277.045368,3010.02542 C278.055362,3010.02542 278.398315,3010.32748 278.529494,3010.43772 C278.761844,3010.2971 279.265984,3010.02542 280.122507,3010.02542 C281.837269,3010.02542 281.837269,3010.73371 281.837269,3011.02015 L281.837269,3012.68585 L280.456029,3012.68585 L280.456029,3011.20156 C280.456029,3010.89516 280.456029,3010.55403 279.719538,3010.55403 C279.356009,3010.55403 278.983906,3010.66861 278.853584,3010.84134 C278.730121,3010.98543 278.68125,3011.11216 278.68125,3011.43853 L278.68125,3012.68671 L277.298295,3012.68671 L277.298295,3011.26145 C277.298295,3010.82225 277.310298,3010.5549 276.583239,3010.5549 C276.220567,3010.5549 275.848464,3010.65472 275.706139,3010.80662 C275.595537,3010.92207 275.525231,3011.04185 275.525231,3011.42464 L275.525231,3012.68758 L274.142276,3012.68758 L274.142276,3010.08965 L275.423203,3010.08965 L275.423203,3010.08792 L275.423203,3010.08792 L275.422346,3010.08792 L275.422346,3010.08792 Z M283.876978,3011.44634 C283.876978,3011.06876 284.008157,3010.88127 284.342536,3010.71722 C284.592891,3010.59657 284.896404,3010.57139 285.086742,3010.57139 C285.559159,3010.57139 286.185905,3010.73718 286.185905,3011.38297 C286.185905,3011.67289 286.053868,3012.21886 285.037014,3012.21886 C284.389692,3012.21886 283.876978,3011.97408 283.876978,3011.44634 L283.876978,3011.44634 Z M282.503454,3010.08792 L282.503454,3013.67363 L283.886409,3013.67363 L283.886409,3012.38638 C284.085322,3012.50009 284.561168,3012.74747 285.407403,3012.74747 C286.568297,3012.74747 287.606585,3012.33083 287.606585,3011.41162 C287.606585,3010.47852 286.547719,3010.02629 285.415977,3010.02629 C285.104747,3010.02629 284.34768,3010.08097 283.813532,3010.4707 L283.79124,3010.4707 L283.79124,3010.08878 L282.503454,3010.08878 L282.503454,3010.08878 L282.503454,3010.08792 L282.503454,3010.08792 Z M291.25817,3011.16163 C291.247881,3010.82051 291.641419,3010.55317 292.300745,3010.55317 C292.509946,3010.55317 293.297021,3010.59396 293.326172,3011.16163 L291.25817,3011.16163 L291.25817,3011.16163 Z M293.248151,3011.85951 C293.176131,3011.97756 293.0158,3012.21799 292.369335,3012.21799 C291.583117,3012.21799 291.250453,3011.89249 291.231591,3011.58435 L294.701411,3011.58435 C294.731419,3010.81443 294.186125,3010.02629 292.220151,3010.02629 C290.563691,3010.02629 289.818627,3010.69986 289.818627,3011.40294 C289.818627,3011.61647 289.899221,3011.87253 290.130714,3012.12685 C290.684582,3012.71883 291.895204,3012.74747 292.348758,3012.74747 C294.082382,3012.74747 294.517932,3012.13727 294.630248,3011.97408 L293.248151,3011.85951 Z M284.336534,3013.21967 L284.176204,3013.21967 L284.176204,3013.132 L284.604894,3013.132 L284.604894,3013.21967 L284.441992,3013.21967 L284.441992,3013.64238 L284.336534,3013.64238 L284.336534,3013.21967 Z M284.674342,3013.132 L284.832958,3013.132 L284.931557,3013.48007 L285.029298,3013.132 L285.1922,3013.132 L285.1922,3013.64238 L285.091887,3013.64238 L285.091887,3013.24137 L284.984714,3013.64238 L284.881828,3013.64238 L284.776371,3013.24137 L284.774656,3013.24137 L284.774656,3013.64238 L284.674342,3013.64238 L284.674342,3013.132 Z" id="logo-mediatemple" sketch:type="MSShapeGroup"></path>
        </g>
    </g>
</svg>
