<?xml version="1.0" encoding="UTF-8" standalone="no"?>
<svg width="84px" height="20px" viewBox="0 0 84 20" version="1.1" xmlns="http://www.w3.org/2000/svg" xmlns:xlink="http://www.w3.org/1999/xlink" xmlns:sketch="http://www.bohemiancoding.com/sketch/ns">
    <!-- Generator: Sketch 3.0.4 (8053) - http://www.bohemiancoding.com/sketch -->
    <title>logo-threespot</title>
    <desc>Created with Sketch.</desc>
    <defs></defs>
    <g id="Page-3" stroke="none" stroke-width="1" fill="none" fill-rule="evenodd" sketch:type="MSPage">
        <g id="Homepage" sketch:type="MSArtboardGroup" transform="translate(-613.000000, -2991.000000)" fill="#F1FFF7" opacity="0.420383523">
            <path d="M618.545,2995.487 L616.011,2995.487 L616.011,3003.612 C616.011,3005.491 616.893,3005.672 618.523,3005.627 L618.523,3006.374 C616.757,3006.487 615.061,3006.238 615.151,3003.612 L615.151,2995.487 L613,2995.487 L613,2994.741 L615.15,2994.741 L615.15,2991.015 L616.01,2991.015 L616.01,2994.741 L618.545,2994.741 L618.545,2995.487 Z M620.292,2991 L620.292,2997.23 L620.337,2997.23 C620.926,2995.487 622.691,2994.469 624.502,2994.469 C628.598,2994.469 628.643,2997.751 628.643,2999.177 L628.643,3006.374 L627.783,3006.374 L627.783,2999.019 C627.783,2997.819 627.647,2995.217 624.479,2995.217 C621.876,2995.217 620.292,2997.231 620.292,3000.083 L620.292,3006.375 L619.432,3006.375 L619.432,2991 L620.292,2991 Z M630.491,2997.321 L630.559,2997.321 C631.012,2995.805 632.913,2994.583 635.017,2994.673 L635.017,2995.532 C634.112,2995.42 632.844,2995.646 631.804,2996.664 C630.945,2997.546 630.582,2998.271 630.492,3000.014 L630.492,3006.374 L629.632,3006.374 L629.632,2994.741 L630.492,2994.741 L630.492,2997.321 L630.491,2997.321 Z M635.093,3000.67 C635.047,3003.409 636.496,3005.898 639.37,3005.898 C641.565,3005.898 643.127,3004.586 643.534,3002.435 L644.394,3002.435 C643.941,3005.151 642.131,3006.645 639.37,3006.645 C635.975,3006.645 634.187,3003.974 634.232,3000.76 C634.187,2997.569 635.862,2994.468 639.37,2994.468 C643.014,2994.468 644.643,2997.343 644.485,3000.669 L635.093,3000.669 L635.093,3000.67 Z M643.625,2999.923 C643.58,2997.479 642.041,2995.216 639.37,2995.216 C636.79,2995.216 635.274,2997.615 635.093,2999.923 L643.625,2999.923 L643.625,2999.923 L643.625,2999.923 L643.625,2999.923 Z M646.046,3000.67 C646.001,3003.409 647.449,3005.898 650.324,3005.898 C652.519,3005.898 654.081,3004.586 654.489,3002.435 L655.347,3002.435 C654.895,3005.151 653.085,3006.645 650.324,3006.645 C646.929,3006.645 645.14,3003.974 645.187,3000.76 C645.141,2997.569 646.816,2994.468 650.324,2994.468 C653.967,2994.468 655.597,2997.343 655.438,3000.669 L646.046,3000.669 L646.046,3000.669 L646.046,3000.67 L646.046,3000.67 Z M654.579,2999.923 C654.534,2997.479 652.995,2995.216 650.325,2995.216 C647.744,2995.216 646.229,2997.615 646.047,2999.923 L654.579,2999.923 L654.579,2999.923 L654.579,2999.923 L654.579,2999.923 Z M656.879,3002.503 C657.016,3004.653 658.623,3005.899 660.727,3005.899 C662.244,3005.899 664.416,3005.446 664.416,3003.432 C664.416,3001.462 662.424,3001.168 660.434,3000.761 C658.418,3000.354 656.428,2999.833 656.428,2997.457 C656.428,2995.148 658.668,2994.47 660.637,2994.47 C663.104,2994.47 664.938,2995.533 664.938,2998.181 L664.077,2998.181 C664.056,2996.077 662.584,2995.217 660.638,2995.217 C659.054,2995.217 657.288,2995.805 657.288,2997.457 C657.288,2999.313 659.28,2999.607 661.158,3000.015 C663.468,3000.445 665.277,3000.988 665.277,3003.432 C665.277,3005.944 662.765,3006.646 660.727,3006.646 C658.08,3006.646 656.087,3005.22 656.02,3002.503 L656.879,3002.503 L656.879,3002.503 L656.879,3002.503 L656.879,3002.503 Z M666.97,2997.411 L667.015,2997.411 C667.376,2996.257 668.691,2994.469 671.247,2994.469 C674.823,2994.469 676.476,2997.298 676.476,3000.579 C676.476,3004.11 674.801,3006.645 671.247,3006.645 C669.323,3006.645 667.694,3005.831 667.015,3003.952 L666.97,3003.952 L666.97,3010.538 L666.11,3010.538 L666.11,2994.741 L666.97,2994.741 L666.97,2997.411 L666.97,2997.411 L666.97,2997.411 L666.97,2997.411 Z M675.615,3000.58 C675.615,2997.932 674.37,2995.216 671.247,2995.216 C668.145,2995.216 666.991,2997.819 666.991,3000.58 C666.991,3003.341 667.966,3005.899 671.247,3005.899 C674.28,3005.898 675.615,3003.454 675.615,3000.58 C675.615,3000.58 675.615,3003.454 675.615,3000.58 L675.615,3000.58 L675.615,3000.58 Z M682.495,2994.469 C685.913,2994.469 687.837,2997.253 687.837,3000.557 C687.837,3003.861 685.913,3006.645 682.495,3006.645 C679.078,3006.645 677.154,3003.861 677.154,3000.557 C677.154,2997.253 679.078,2994.469 682.495,2994.469 C682.495,2994.469 679.078,2994.469 682.495,2994.469 L682.495,2994.469 L682.495,2994.469 Z M682.495,3005.898 C685.415,3005.898 686.976,3003.34 686.976,3000.557 C686.976,2997.773 685.414,2995.215 682.495,2995.215 C679.576,2995.215 678.014,2997.773 678.014,3000.557 C678.014,3003.341 679.576,3005.898 682.495,3005.898 C682.495,3005.898 679.576,3005.898 682.495,3005.898 L682.495,3005.898 L682.495,3005.898 Z M692.698,2995.487 L690.164,2995.487 L690.164,3003.612 C690.164,3005.491 691.046,3005.672 692.677,3005.627 L692.677,3006.374 C690.911,3006.487 689.213,3006.238 689.304,3003.612 L689.304,2995.487 L687.154,2995.487 L687.154,2994.741 L689.304,2994.741 L689.304,2991.015 L690.164,2991.015 L690.164,2994.741 L692.698,2994.741 L692.698,2995.487 L692.698,2995.487 L692.698,2995.487 L692.698,2995.487 Z M694.648,3006.396 L694.648,3004.819 L696.171,3004.819 L696.171,3006.396 L694.648,3006.396 L694.648,3006.396 L694.648,3006.396 L694.648,3006.396 Z" id="logo-threespot" sketch:type="MSShapeGroup"></path>
        </g>
    </g>
</svg>